<svg  viewBox="0 0 782 1175" fill="none" xmlns="http://www.w3.org/2000/svg">
<g filter="url(#filter0_f)">
<path d="M-1044.58 627.15V334.554H-1264.71V330.595H-1040.6V617.579L-694.327 271.042L-200.82 271.042L-111.547 360.358L242.455 360.358V364.318L-113.198 364.318L-202.445 275.002L-692.702 275.002L-1044.58 627.15Z" fill="#676767"/>
<path d="M241.616 377.272C249.844 377.272 256.526 370.585 256.526 362.351C256.526 354.117 249.844 347.43 241.616 347.43C233.388 347.43 226.707 354.117 226.707 362.351C226.707 370.585 233.388 377.272 241.616 377.272Z" fill="#676767"/>
<path d="M241.616 379.265C232.288 379.265 224.716 371.686 224.716 362.351C224.716 353.015 232.288 345.437 241.616 345.437C250.945 345.437 258.517 353.015 258.517 362.351C258.517 371.66 250.945 379.265 241.616 379.265C250.945 379.265 232.288 379.265 241.616 379.265ZM241.616 349.397C234.489 349.397 228.698 355.192 228.698 362.325C228.698 369.457 234.489 375.252 241.616 375.252C248.744 375.252 254.534 369.457 254.534 362.325C254.561 355.218 248.744 349.397 241.616 349.397C248.744 349.397 234.489 349.397 241.616 349.397Z" fill="#676767"/>
<path d="M-1143.73 580.683H-1264.71V576.723H-1147.72V445.714L-651.852 445.714V212.644L-327.747 537.022L48.0815 537.022V540.982L-329.398 540.982L-647.895 222.241V449.673L-1143.73 449.673V580.683Z" fill="#676767"/>
<path d="M47.2429 553.935C55.4706 553.935 62.1523 547.249 62.1523 539.015C62.1523 530.781 55.4706 524.094 47.2429 524.094C39.0152 524.094 32.3335 530.781 32.3335 539.015C32.3335 547.249 39.0152 553.935 47.2429 553.935Z" fill="#676767"/>
<path d="M47.2431 555.902C37.9148 555.902 30.3423 548.324 30.3423 538.988C30.3423 529.653 37.9148 522.075 47.2431 522.075C56.5714 522.075 64.1442 529.653 64.1442 538.988C64.1442 548.324 56.5714 555.902 47.2431 555.902C37.9411 555.902 56.5714 555.902 47.2431 555.902ZM47.2431 526.061C40.1159 526.061 34.325 531.856 34.325 538.988C34.325 546.121 40.1159 551.943 47.2431 551.943C54.3704 551.943 60.1612 546.147 60.1612 538.988C60.1874 531.856 54.3704 526.061 47.2431 526.061C40.1159 526.061 54.3704 526.061 47.2431 526.061Z" fill="#676767"/>
<path d="M-466.57 128.127L-973.178 128.127V52.7101L-1264.71 52.7101V48.7242L-969.195 48.7242V124.168L-468.221 124.168L-341.294 -2.88257L127.424 -2.88257V1.10329L-339.643 1.10329L-466.57 128.127Z" fill="#676767"/>
<path d="M126.586 14.0312C134.814 14.0312 141.495 7.34431 141.495 -0.889694C141.495 -9.12369 134.814 -15.8105 126.586 -15.8105C118.358 -15.8105 111.677 -9.12369 111.677 -0.889694C111.677 7.34431 118.358 14.0312 126.586 14.0312Z" fill="#676767"/>
<path d="M126.586 16.0242C117.258 16.0242 109.685 8.44574 109.685 -0.889648C109.685 -10.225 117.258 -17.8035 126.586 -17.8035C135.914 -17.8035 143.487 -10.225 143.487 -0.889648C143.487 8.41951 135.888 16.0242 126.586 16.0242C117.258 16.0242 135.888 16.0242 126.586 16.0242ZM126.586 -13.8438C119.459 -13.8438 113.668 -8.04851 113.668 -0.915857C113.668 6.2168 119.459 12.0121 126.586 12.0121C133.713 12.0121 139.504 6.2168 139.504 -0.915857C139.504 -8.02229 133.713 -13.8438 126.586 -13.8438C119.459 -13.8438 133.713 -13.8438 126.586 -13.8438Z" fill="#676767"/>
<path d="M-192.881 703.747H-505.089L-505.089 552.887L-798.64 552.887V293.699L-872.847 219.436L-1264.71 219.436V215.45L-871.196 215.45L-794.658 292.047V548.927L-501.132 548.927L-501.132 699.788H-194.532L-89.4055 594.581H159.156V598.541H-87.7548L-192.881 703.747Z" fill="#676767"/>
<path d="M158.317 611.495C166.545 611.495 173.227 604.808 173.227 596.574C173.227 588.34 166.545 581.653 158.317 581.653C150.089 581.653 143.407 588.34 143.407 596.574C143.407 604.808 150.089 611.495 158.317 611.495Z" fill="#676767"/>
<path d="M158.317 613.462C148.989 613.462 141.417 605.883 141.417 596.548C141.417 587.213 148.989 579.634 158.317 579.634C167.646 579.634 175.218 587.213 175.218 596.548C175.218 605.883 167.619 613.462 158.317 613.462C167.619 613.462 148.989 613.462 158.317 613.462ZM158.317 583.62C151.19 583.62 145.399 589.415 145.399 596.548C145.399 603.681 151.19 609.476 158.317 609.476C165.445 609.476 171.262 603.681 171.262 596.548C171.262 589.415 165.445 583.62 158.317 583.62C165.445 583.62 151.19 583.62 158.317 583.62Z" fill="#676767"/>
<path d="M-299.815 313.707L-844.653 313.707L-985.468 172.785L-1234.97 172.785V170.792L-984.655 170.792L-843.841 311.74L-301.781 311.74V144.989L435.308 144.989V146.982L-299.815 146.982V313.707Z" fill="#676767"/>
<path d="M431.378 151.754L452.89 145.985L431.378 140.216V151.754Z" fill="#676767"/>
<path d="M-363.278 635.279H-714.346V420.907L-1348.04 420.907V418.914L-712.354 418.914V633.286H-365.27V462.575L597.95 462.575V464.568L-363.278 464.568V635.279Z" fill="#676767"/>
<path d="M594.02 469.34L615.532 463.571L594.02 457.802V469.34Z" fill="#676767"/>
</g>
<defs>
<filter id="filter0_f" x="-1444" y="-406" width="2246" height="1601" filterUnits="userSpaceOnUse" color-interpolation-filters="sRGB">
<feFlood flood-opacity="0" result="BackgroundImageFix"/>
<feBlend mode="normal" in="SourceGraphic" in2="BackgroundImageFix" result="shape"/>
<feGaussianBlur stdDeviation="10" result="effect1_foregroundBlur"/>
</filter>
</defs>
</svg>
