<svg  viewBox="0 0 661 382" fill="none" xmlns="http://www.w3.org/2000/svg">
<path d="M848.163 39.716L848.163 189.107L960.623 189.107L960.623 191.128L846.128 191.128L846.128 44.6028L669.225 221.534L417.103 221.534L371.495 175.932L190.642 175.932L190.642 173.911L372.338 173.911L417.933 219.512L668.395 219.512L848.163 39.716Z" fill="#393939"/>
<path d="M191.071 167.296C186.868 167.296 183.454 170.711 183.454 174.915C183.454 179.119 186.868 182.533 191.071 182.533C195.274 182.533 198.688 179.119 198.688 174.915C198.688 170.711 195.274 167.296 191.071 167.296Z" fill="#393939"/>
<path d="M191.071 166.279C195.836 166.279 199.705 170.148 199.705 174.915C199.705 179.681 195.836 183.55 191.071 183.55C186.305 183.55 182.436 179.681 182.436 174.915C182.436 170.162 186.305 166.279 191.071 166.279C186.305 166.279 195.836 166.279 191.071 166.279ZM191.071 181.529C194.712 181.529 197.67 178.57 197.67 174.928C197.67 171.286 194.712 168.327 191.071 168.327C187.43 168.327 184.471 171.286 184.471 174.928C184.458 178.556 187.43 181.529 191.071 181.529C187.43 181.529 194.712 181.529 191.071 181.529Z" fill="#393939"/>
<path d="M898.817 63.4405L960.623 63.4405L960.623 65.4622L900.852 65.4622L900.852 132.352L647.525 132.352L647.525 251.35L481.947 85.7327L289.944 85.7327L289.944 83.711L482.79 83.711L645.504 246.45L645.504 130.33L898.817 130.33L898.817 63.4405Z" fill="#393939"/>
<path d="M290.372 77.097C286.169 77.097 282.755 80.5111 282.755 84.7151C282.755 88.9191 286.169 92.3333 290.372 92.3333C294.575 92.3333 297.989 88.9191 297.989 84.7151C297.989 80.5111 294.575 77.097 290.372 77.097Z" fill="#393939"/>
<path d="M290.372 76.0929C295.138 76.0929 299.006 79.9622 299.006 84.7286C299.006 89.495 295.138 93.3643 290.372 93.3643C285.606 93.3643 281.738 89.495 281.738 84.7286C281.738 79.9622 285.606 76.0929 290.372 76.0929C295.124 76.0929 285.606 76.0929 290.372 76.0929ZM290.372 91.3292C294.013 91.3292 296.972 88.3703 296.972 84.7286C296.972 81.0869 294.013 78.1146 290.372 78.1146C286.731 78.1146 283.773 81.0735 283.773 84.7286C283.759 88.3703 286.731 91.3292 290.372 91.3292C294.013 91.3292 286.731 91.3292 290.372 91.3292Z" fill="#393939"/>
<path d="M419.378 335.404L419.378 348.86L407.732 342.125L419.378 335.404ZM418.361 347.106L418.361 337.158L409.753 342.125L418.361 347.106Z" fill="#393939"/>
<path d="M405.188 335.404L405.188 348.86L393.542 342.125L405.188 335.404ZM404.171 347.106L404.171 337.158L395.563 342.125L404.171 347.106Z" fill="#393939"/>
<path d="M390.999 335.404L390.999 348.86L379.352 342.125L390.999 335.404ZM389.995 347.106L389.995 337.158L381.387 342.125L389.995 347.106Z" fill="#393939"/>
<path d="M376.822 335.404L376.822 348.86L365.176 342.125L376.822 335.404ZM375.805 347.106L375.805 337.158L367.197 342.125L375.805 347.106Z" fill="#393939"/>
<path d="M552.869 294.502L811.684 294.502L811.684 333.008L960.623 333.008L960.623 335.043L809.65 335.043L809.65 296.524L553.712 296.524L488.868 361.392L249.409 361.392L249.409 359.357L488.025 359.357L552.869 294.502Z" fill="#393939"/>
<path d="M249.838 352.756C245.634 352.756 242.221 356.17 242.221 360.374C242.221 364.578 245.634 367.992 249.838 367.992C254.041 367.992 257.454 364.578 257.454 360.374C257.454 356.17 254.041 352.756 249.838 352.756Z" fill="#393939"/>
<path d="M249.838 351.738C254.603 351.738 258.472 355.608 258.472 360.374C258.472 365.14 254.603 369.01 249.838 369.01C245.072 369.01 241.203 365.14 241.203 360.374C241.203 355.621 245.085 351.738 249.838 351.738C245.085 351.738 254.603 351.738 249.838 351.738ZM249.838 366.988C253.479 366.988 256.437 364.029 256.437 360.387C256.437 356.746 253.479 353.787 249.838 353.787C246.196 353.787 243.238 356.746 243.238 360.387C243.238 364.016 246.196 366.988 249.838 366.988C246.196 366.988 253.479 366.988 249.838 366.988Z" fill="#393939"/>
<path d="M488.44 339.1C500.18 339.1 509.724 348.646 509.724 360.388C509.724 372.129 500.18 381.676 488.44 381.676C476.7 381.676 467.155 372.129 467.155 360.388C467.155 348.646 476.713 339.1 488.44 339.1ZM488.44 379.627C499.055 379.627 507.689 370.991 507.689 360.374C507.689 349.757 499.055 341.121 488.44 341.121C477.824 341.121 469.19 349.757 469.19 360.374C469.19 370.991 477.824 379.627 488.44 379.627Z" fill="#393939"/>
<path d="M488.44 348.217C481.727 348.217 476.285 353.66 476.285 360.374C476.285 367.088 481.727 372.531 488.44 372.531C495.153 372.531 500.595 367.088 500.595 360.374C500.595 353.66 495.153 348.217 488.44 348.217Z" fill="#393939"/>
<path d="M413.047 0.607592L572.547 0.607578L572.547 77.6325L722.517 77.6325L722.517 209.966L760.427 247.883L960.623 247.883L960.623 249.918L759.584 249.918L720.482 210.809L720.482 79.6542L570.526 79.6542L570.526 2.62928L413.89 2.62929L360.183 56.3446L233.198 56.3446L233.198 54.3229L359.34 54.3229L413.047 0.607592Z" fill="#393939"/>
<path d="M233.627 47.7088C229.423 47.7088 226.01 51.1229 226.01 55.3269C226.01 59.531 229.423 62.9451 233.627 62.9451C237.83 62.9451 241.244 59.531 241.244 55.3269C241.244 51.1229 237.83 47.7088 233.627 47.7088Z" fill="#393939"/>
<path d="M233.627 46.7047C238.392 46.7047 242.261 50.574 242.261 55.3404C242.261 60.1067 238.392 63.9761 233.627 63.9761C228.861 63.9761 224.992 60.1067 224.992 55.3404C224.992 50.574 228.874 46.7047 233.627 46.7047C228.874 46.7047 238.392 46.7047 233.627 46.7047ZM233.627 61.941C237.268 61.941 240.226 58.9821 240.226 55.3404C240.226 51.6986 237.268 48.7398 233.627 48.7398C229.985 48.7398 227.014 51.6986 227.014 55.3404C227.014 58.9821 229.985 61.941 233.627 61.941C229.985 61.941 237.268 61.941 233.627 61.941Z" fill="#393939"/>
<path d="M571.53 62.423C580.472 62.423 587.741 69.693 587.741 78.6367C587.741 87.5803 580.472 94.8503 571.53 94.8503C562.588 94.8503 555.319 87.5803 555.319 78.6367C555.319 69.7064 562.601 62.423 571.53 62.423ZM571.53 92.8286C579.348 92.8286 585.72 86.469 585.72 78.6367C585.72 70.8177 579.361 64.4447 571.53 64.4447C563.712 64.4447 557.34 70.8043 557.34 78.6367C557.353 86.469 563.712 92.8286 571.53 92.8286Z" fill="#393939"/>
<path d="M562.414 78.6367C562.414 83.6709 566.497 87.7544 571.53 87.7544C576.563 87.7544 580.646 83.6709 580.646 78.6367C580.646 73.6026 576.563 69.5191 571.53 69.5191C566.497 69.5191 562.414 73.6026 562.414 78.6367Z" fill="#393939"/>
<path d="M467.677 199.751L746.023 199.751L817.963 271.701L945.429 271.701L945.429 272.719L817.548 272.719L745.608 200.755L468.681 200.755L468.681 285.893L92.1173 285.893L92.1173 284.876L467.677 284.876L467.677 199.751Z" fill="#393939"/>
<path d="M94.1252 282.439L83.135 285.384L94.1252 288.33L94.1252 282.439Z" fill="#393939"/>
<path d="M500.099 35.5654L679.452 35.5654L679.452 145.018L1003.19 145.018L1003.19 146.035L678.435 146.035L678.435 36.5829L501.116 36.583L501.116 123.743L9.02685 123.743L9.02685 122.726L500.099 122.726L500.099 35.5654Z" fill="#393939"/>
<path d="M11.0348 120.289L0.0445554 123.234L11.0348 126.18L11.0348 120.289Z" fill="#393939"/>
</svg>
