<svg viewBox="0 0 1115 1307" fill="none" xmlns="http://www.w3.org/2000/svg">
<g filter="url(#lines_left_blur)">
<path d="M-711.581 759.15V466.554H-931.712V462.595H-707.598V749.579L-361.327 403.042L132.18 403.042L221.453 492.358L575.455 492.358V496.318L219.802 496.318L130.555 407.002L-359.702 407.002L-711.581 759.15Z" fill="#676767"/>
<path d="M574.616 509.272C582.844 509.272 589.526 502.585 589.526 494.351C589.526 486.117 582.844 479.43 574.616 479.43C566.388 479.43 559.707 486.117 559.707 494.351C559.707 502.585 566.388 509.272 574.616 509.272Z" fill="#676767"/>
<path d="M574.616 511.265C565.288 511.265 557.716 503.686 557.716 494.351C557.716 485.015 565.288 477.437 574.616 477.437C583.945 477.437 591.517 485.015 591.517 494.351C591.517 503.66 583.945 511.265 574.616 511.265C583.945 511.265 565.288 511.265 574.616 511.265ZM574.616 481.397C567.489 481.397 561.698 487.192 561.698 494.325C561.698 501.457 567.489 507.252 574.616 507.252C581.744 507.252 587.534 501.457 587.534 494.325C587.561 487.218 581.744 481.397 574.616 481.397C581.744 481.397 567.489 481.397 574.616 481.397Z" fill="#676767"/>
<path d="M-810.733 712.683H-931.712V708.723H-814.716V577.714L-318.852 577.714V344.644L5.25275 669.022L381.082 669.022V672.982L3.60193 672.982L-314.895 354.241V581.673L-810.733 581.673V712.683Z" fill="#676767"/>
<path d="M380.243 685.935C388.471 685.935 395.152 679.249 395.152 671.015C395.152 662.781 388.471 656.094 380.243 656.094C372.015 656.094 365.333 662.781 365.333 671.015C365.333 679.249 372.015 685.935 380.243 685.935Z" fill="#676767"/>
<path d="M380.243 687.902C370.915 687.902 363.342 680.324 363.342 670.988C363.342 661.653 370.915 654.075 380.243 654.075C389.571 654.075 397.144 661.653 397.144 670.988C397.144 680.324 389.571 687.902 380.243 687.902C370.941 687.902 389.571 687.902 380.243 687.902ZM380.243 658.061C373.116 658.061 367.325 663.856 367.325 670.988C367.325 678.121 373.116 683.943 380.243 683.943C387.37 683.943 393.161 678.147 393.161 670.988C393.187 663.856 387.37 658.061 380.243 658.061C373.116 658.061 387.37 658.061 380.243 658.061Z" fill="#676767"/>
<path d="M127.725 180.016V153.662L150.522 166.852L127.725 180.016ZM129.717 157.097V176.581L146.565 166.852L129.717 157.097Z" fill="#676767"/>
<path d="M155.5 180.016V153.662L178.297 166.852L155.5 180.016ZM157.492 157.097V176.581L174.34 166.852L157.492 157.097Z" fill="#676767"/>
<path d="M183.275 180.016V153.662L206.072 166.852L183.275 180.016ZM185.24 157.097V176.581L202.089 166.852L185.24 157.097Z" fill="#676767"/>
<path d="M211.024 180.016V153.662L233.821 166.852L211.024 180.016ZM213.015 157.097V176.581L229.864 166.852L213.015 157.097Z" fill="#676767"/>
<path d="M-133.57 260.127L-640.178 260.127V184.71L-931.712 184.71V180.724L-636.195 180.724V256.168L-135.221 256.168L-8.29413 129.117L460.424 129.117V133.103L-6.64343 133.103L-133.57 260.127Z" fill="#676767"/>
<path d="M459.586 146.031C467.814 146.031 474.495 139.344 474.495 131.11C474.495 122.876 467.814 116.189 459.586 116.189C451.358 116.189 444.677 122.876 444.677 131.11C444.677 139.344 451.358 146.031 459.586 146.031Z" fill="#676767"/>
<path d="M459.586 148.024C450.258 148.024 442.685 140.446 442.685 131.11C442.685 121.775 450.258 114.197 459.586 114.197C468.914 114.197 476.487 121.775 476.487 131.11C476.487 140.42 468.888 148.024 459.586 148.024C450.258 148.024 468.888 148.024 459.586 148.024ZM459.586 118.156C452.459 118.156 446.668 123.951 446.668 131.084C446.668 138.217 452.459 144.012 459.586 144.012C466.713 144.012 472.504 138.217 472.504 131.084C472.504 123.978 466.713 118.156 459.586 118.156C452.459 118.156 466.713 118.156 459.586 118.156Z" fill="#676767"/>
<path d="M-7.45597 172.779C-30.436 172.779 -49.1187 154.082 -49.1187 131.084C-49.1187 108.087 -30.436 89.3896 -7.45597 89.3896C15.524 89.3896 34.2068 108.087 34.2068 131.084C34.2068 154.082 15.4978 172.779 -7.45597 172.779ZM-7.45597 93.4018C-28.2349 93.4018 -45.1358 110.316 -45.1358 131.11C-45.1358 151.905 -28.2349 168.819 -7.45597 168.819C13.323 168.819 30.2239 151.905 30.2239 131.11C30.2239 110.316 13.323 93.4018 -7.45597 93.4018Z" fill="#676767"/>
<path d="M-7.45634 154.921C5.68375 154.921 16.3359 144.26 16.3359 131.11C16.3359 117.96 5.68375 107.3 -7.45634 107.3C-20.5964 107.3 -31.2485 117.96 -31.2485 131.11C-31.2485 144.26 -20.5964 154.921 -7.45634 154.921Z" fill="#676767"/>
<path d="M140.119 835.747H-172.089L-172.089 684.887L-465.64 684.887L-465.64 425.699L-539.847 351.436L-931.712 351.436V347.45L-538.196 347.45L-461.658 424.047L-461.658 680.927L-168.132 680.927L-168.132 831.788H138.468L243.594 726.581H492.156V730.541H245.245L140.119 835.747Z" fill="#676767"/>
<path d="M491.317 743.495C499.545 743.495 506.227 736.808 506.227 728.574C506.227 720.34 499.545 713.653 491.317 713.653C483.089 713.653 476.407 720.34 476.407 728.574C476.407 736.808 483.089 743.495 491.317 743.495Z" fill="#676767"/>
<path d="M491.317 745.462C481.989 745.462 474.417 737.883 474.417 728.548C474.417 719.213 481.989 711.634 491.317 711.634C500.646 711.634 508.218 719.213 508.218 728.548C508.218 737.883 500.619 745.462 491.317 745.462C500.619 745.462 481.989 745.462 491.317 745.462ZM491.317 715.62C484.19 715.62 478.399 721.415 478.399 728.548C478.399 735.681 484.19 741.476 491.317 741.476C498.445 741.476 504.262 735.681 504.262 728.548C504.262 721.415 498.445 715.62 491.317 715.62C498.445 715.62 484.19 715.62 491.317 715.62Z" fill="#676767"/>
<path d="M33.1847 445.707L-511.653 445.707L-652.468 304.785L-901.972 304.785V302.792L-651.655 302.792L-510.841 443.74L31.2195 443.74V276.989L768.308 276.989V278.982L33.1847 278.982V445.707Z" fill="#676767"/>
<path d="M764.378 283.754L785.89 277.985L764.378 272.216V283.754Z" fill="#676767"/>
<path d="M-30.2784 767.279H-381.346V552.907L-1015.04 552.907V550.914L-379.354 550.914V765.286H-32.2699V594.575L930.95 594.575V596.568L-30.2784 596.568V767.279Z" fill="#676767"/>
<path d="M927.02 601.34L948.532 595.571L927.02 589.802V601.34Z" fill="#676767"/>
</g>
<defs>
<filter id="lines_left_blur" x="-1111" y="-274" width="2246" height="1601" filterUnits="userSpaceOnUse" color-interpolation-filters="sRGB">
<feFlood flood-opacity="0" result="BackgroundImageFix"/>
<feBlend mode="normal" in="SourceGraphic" in2="BackgroundImageFix" result="shape"/>
<feGaussianBlur stdDeviation="10" result="effect1_foregroundBlur"/>
</filter>
</defs>
</svg>
