<svg  viewBox="0 0 895 1043" fill="none" xmlns="http://www.w3.org/2000/svg">
<g filter="url(#filter0_f)">
<path d="M1826.58 29.85L1826.58 322.446L2046.71 322.446L2046.71 326.405L1822.6 326.405L1822.6 39.4214L1476.33 385.958L982.82 385.958L893.547 296.642L539.545 296.642L539.545 292.683L895.198 292.683L984.445 381.998L1474.7 381.998L1826.58 29.85Z" fill="#656565"/>
<path d="M540.384 279.729C532.156 279.729 525.474 286.416 525.474 294.65C525.474 302.884 532.156 309.571 540.384 309.571C548.612 309.571 555.293 302.884 555.293 294.65C555.293 286.416 548.612 279.729 540.384 279.729Z" fill="#656565"/>
<path d="M540.384 277.736C549.712 277.736 557.284 285.314 557.284 294.65C557.284 303.985 549.712 311.563 540.384 311.563C531.055 311.563 523.483 303.985 523.483 294.65C523.483 285.341 531.055 277.736 540.384 277.736C531.055 277.736 549.712 277.736 540.384 277.736ZM540.384 307.604C547.511 307.604 553.302 301.809 553.302 294.676C553.302 287.543 547.511 281.748 540.384 281.748C533.256 281.748 527.466 287.543 527.466 294.676C527.439 301.782 533.256 307.604 540.384 307.604C533.256 307.604 547.511 307.604 540.384 307.604Z" fill="#656565"/>
<path d="M1925.73 76.3171L2046.71 76.3171L2046.71 80.2768L1929.72 80.2768L1929.72 211.287L1433.85 211.287L1433.85 444.356L1109.75 119.979L733.918 119.979L733.918 116.019L1111.4 116.019L1429.89 434.759L1429.89 207.327L1925.73 207.327L1925.73 76.3171Z" fill="#656565"/>
<path d="M734.757 103.065C726.53 103.065 719.848 109.752 719.848 117.986C719.848 126.22 726.53 132.906 734.757 132.906C742.985 132.906 749.667 126.22 749.667 117.986C749.667 109.752 742.985 103.065 734.757 103.065Z" fill="#656565"/>
<path d="M734.757 101.098C744.085 101.098 751.658 108.676 751.658 118.012C751.658 127.347 744.085 134.926 734.757 134.926C725.429 134.926 717.856 127.347 717.856 118.012C717.856 108.676 725.429 101.098 734.757 101.098C725.429 101.098 744.059 101.098 734.757 101.098ZM734.757 130.94C741.884 130.94 747.675 125.144 747.675 118.012C747.675 110.879 741.884 105.058 734.757 105.058C727.63 105.058 721.839 110.853 721.839 118.012C721.813 125.144 727.63 130.94 734.757 130.94C727.63 130.94 741.884 130.94 734.757 130.94Z" fill="#656565"/>
<path d="M903.976 608.984L903.976 635.338L881.179 622.148L903.976 608.984ZM901.984 631.903L901.984 612.419L885.136 622.148L901.984 631.903Z" fill="#656565"/>
<path d="M1248.57 528.873L1755.18 528.873L1755.18 604.29L2046.71 604.29L2046.71 608.276L1751.2 608.276L1751.2 532.833L1250.22 532.833L1123.29 659.883L654.576 659.883L654.576 655.897L1121.64 655.897L1248.57 528.873Z" fill="#656565"/>
<path d="M655.414 642.969C647.186 642.969 640.505 649.656 640.505 657.89C640.505 666.124 647.186 672.811 655.414 672.811C663.642 672.811 670.323 666.124 670.323 657.89C670.323 649.656 663.642 642.969 655.414 642.969Z" fill="#656565"/>
<path d="M655.414 640.976C664.742 640.976 672.315 648.555 672.315 657.89C672.315 667.226 664.742 674.804 655.414 674.804C646.086 674.804 638.513 667.226 638.513 657.89C638.513 648.581 646.112 640.976 655.414 640.976C646.112 640.976 664.742 640.976 655.414 640.976ZM655.414 670.844C662.541 670.844 668.332 665.049 668.332 657.916C668.332 650.784 662.541 644.988 655.414 644.988C648.287 644.988 642.496 650.784 642.496 657.916C642.496 665.023 648.287 670.844 655.414 670.844C648.287 670.844 662.541 670.844 655.414 670.844Z" fill="#656565"/>
<path d="M974.881 -46.7471L1287.09 -46.7472L1287.09 104.114L1580.64 104.114L1580.64 363.301L1654.85 437.565L2046.71 437.565L2046.71 441.551L1653.2 441.551L1576.66 364.953L1576.66 108.073L1283.13 108.073L1283.13 -42.7875L976.532 -42.7874L871.405 62.4191L622.844 62.4191L622.844 58.4594L869.755 58.4594L974.881 -46.7471Z" fill="#656565"/>
<path d="M623.683 45.5055C615.455 45.5055 608.774 52.1923 608.774 60.4263C608.774 68.6603 615.455 75.3472 623.683 75.3472C631.911 75.3472 638.593 68.6603 638.593 60.4263C638.593 52.1923 631.911 45.5055 623.683 45.5055Z" fill="#656565"/>
<path d="M623.683 43.5388C633.011 43.5388 640.584 51.1172 640.584 60.4526C640.584 69.788 633.011 77.3665 623.683 77.3665C614.354 77.3665 606.782 69.788 606.782 60.4526C606.782 51.1172 614.381 43.5388 623.683 43.5388C614.381 43.5388 633.011 43.5388 623.683 43.5388ZM623.683 73.3805C630.81 73.3805 636.601 67.5853 636.601 60.4526C636.601 53.32 630.81 47.5247 623.683 47.5247C616.555 47.5247 610.738 53.32 610.738 60.4526C610.738 67.5853 616.555 73.3805 623.683 73.3805C616.555 73.3805 630.81 73.3805 623.683 73.3805Z" fill="#656565"/>
<path d="M1081.82 343.293L1626.65 343.293L1767.47 484.215L2016.97 484.215L2016.97 486.208L1766.66 486.208L1625.84 345.26L1083.78 345.26L1083.78 512.012L346.692 512.012L346.692 510.019L1081.82 510.019L1081.82 343.293Z" fill="#656565"/>
<path d="M350.622 505.246L329.11 511.015L350.622 516.784L350.622 505.246Z" fill="#656565"/>
<path d="M1145.28 21.721L1496.35 21.721L1496.35 236.094L2130.04 236.094L2130.04 238.086L1494.35 238.086L1494.35 23.7139L1147.27 23.7139L1147.27 194.425L184.049 194.425L184.049 192.433L1145.28 192.432L1145.28 21.721Z" fill="#656565"/>
<path d="M187.98 187.66L166.468 193.429L187.98 199.198L187.98 187.66Z" fill="#656565"/>
</g>
<defs>
<filter id="filter0_f" x="-19.9999" y="-538" width="2246" height="1601" filterUnits="userSpaceOnUse" color-interpolation-filters="sRGB">
<feFlood flood-opacity="0" result="BackgroundImageFix"/>
<feBlend mode="normal" in="SourceGraphic" in2="BackgroundImageFix" result="shape"/>
<feGaussianBlur stdDeviation="10" result="effect1_foregroundBlur"/>
</filter>
</defs>
</svg>
