<svg viewBox="0 0 722 759" fill="none" xmlns="http://www.w3.org/2000/svg">
<path d="M-211.163 479.284V329.894H-323.623V327.872H-209.128V474.397L-32.225 297.466H219.897L265.505 343.068H446.357V345.09H264.662L219.067 299.488H-31.395L-211.163 479.284Z" fill="#393939"/>
<path d="M445.929 351.704C450.132 351.704 453.546 348.29 453.546 344.086C453.546 339.882 450.132 336.468 445.929 336.468C441.726 336.468 438.312 339.882 438.312 344.086C438.312 348.29 441.726 351.704 445.929 351.704Z" fill="#393939"/>
<path d="M445.929 352.721C441.164 352.721 437.295 348.852 437.295 344.086C437.295 339.319 441.164 335.45 445.929 335.45C450.695 335.45 454.564 339.319 454.564 344.086C454.564 348.839 450.695 352.721 445.929 352.721C450.695 352.721 441.164 352.721 445.929 352.721ZM445.929 337.472C442.288 337.472 439.33 340.431 439.33 344.072C439.33 347.714 442.288 350.673 445.929 350.673C449.57 350.673 452.529 347.714 452.529 344.072C452.542 340.444 449.57 337.472 445.929 337.472C449.57 337.472 442.288 337.472 445.929 337.472Z" fill="#393939"/>
<path d="M-261.818 455.56H-323.623V453.538H-263.852V386.648H-10.5254V267.65L155.053 433.267H347.056V435.289H154.209L-8.504 272.55V388.67H-261.818V455.56Z" fill="#393939"/>
<path d="M346.628 441.903C350.831 441.903 354.245 438.489 354.245 434.285C354.245 430.081 350.831 426.667 346.628 426.667C342.424 426.667 339.011 430.081 339.011 434.285C339.011 438.489 342.424 441.903 346.628 441.903Z" fill="#393939"/>
<path d="M346.628 442.907C341.862 442.907 337.993 439.038 337.993 434.271C337.993 429.505 341.862 425.636 346.628 425.636C351.393 425.636 355.262 429.505 355.262 434.271C355.262 439.038 351.393 442.907 346.628 442.907C351.393 442.907 341.875 442.907 346.628 442.907ZM346.628 427.671C342.987 427.671 340.028 430.63 340.028 434.271C340.028 437.913 342.987 440.885 346.628 440.885C350.269 440.885 353.227 437.927 353.227 434.271C353.241 430.63 350.269 427.671 346.628 427.671C350.269 427.671 342.987 427.671 346.628 427.671Z" fill="#393939"/>
<path d="M217.622 183.596V170.14L229.268 176.875L217.622 183.596ZM218.639 171.894V181.842L227.247 176.875L218.639 171.894Z" fill="#393939"/>
<path d="M231.812 183.596V170.14L243.458 176.875L231.812 183.596ZM232.829 171.894V181.842L241.436 176.875L232.829 171.894Z" fill="#393939"/>
<path d="M246.001 183.596V170.14L257.648 176.875L246.001 183.596ZM247.005 171.894V181.842L255.613 176.875L247.005 171.894Z" fill="#393939"/>
<path d="M260.178 183.596V170.14L271.824 176.875L260.178 183.596ZM261.195 171.894V181.842L269.803 176.875L261.195 171.894Z" fill="#393939"/>
<path d="M84.1309 224.498H-174.685V185.992H-323.623V183.957H-172.65V222.476H83.2876L148.132 157.608H387.591V159.643H148.975L84.1309 224.498Z" fill="#393939"/>
<path d="M387.162 166.244C391.365 166.244 394.779 162.83 394.779 158.626C394.779 154.422 391.365 151.008 387.162 151.008C382.959 151.008 379.545 154.422 379.545 158.626C379.545 162.83 382.959 166.244 387.162 166.244Z" fill="#393939"/>
<path d="M387.162 167.262C382.397 167.262 378.528 163.392 378.528 158.626C378.528 153.86 382.397 149.99 387.162 149.99C391.928 149.99 395.796 153.86 395.796 158.626C395.796 163.379 391.914 167.262 387.162 167.262C391.914 167.262 382.397 167.262 387.162 167.262ZM387.162 152.012C383.521 152.012 380.563 154.971 380.563 158.613C380.563 162.254 383.521 165.213 387.162 165.213C390.803 165.213 393.762 162.254 393.762 158.613C393.762 154.984 390.803 152.012 387.162 152.012C390.803 152.012 383.521 152.012 387.162 152.012Z" fill="#393939"/>
<path d="M148.56 179.9C136.82 179.9 127.276 170.354 127.276 158.612C127.276 146.871 136.82 137.324 148.56 137.324C160.3 137.324 169.845 146.871 169.845 158.612C169.845 170.354 160.287 179.9 148.56 179.9ZM148.56 139.373C137.945 139.373 129.311 148.009 129.311 158.626C129.311 169.243 137.945 177.879 148.56 177.879C159.176 177.879 167.81 169.243 167.81 158.626C167.81 148.009 159.176 139.373 148.56 139.373Z" fill="#393939"/>
<path d="M148.56 170.783C155.273 170.783 160.715 165.34 160.715 158.626C160.715 151.912 155.273 146.469 148.56 146.469C141.847 146.469 136.406 151.912 136.406 158.626C136.406 165.34 141.847 170.783 148.56 170.783Z" fill="#393939"/>
<path d="M223.953 518.392H64.4526V441.368H-85.5168V309.034L-123.428 271.117H-323.623V269.082H-122.584L-83.4821 308.191V439.346H66.474V516.371H223.11L276.817 462.655H403.802V464.677H277.66L223.953 518.392Z" fill="#393939"/>
<path d="M403.373 471.291C407.577 471.291 410.99 467.877 410.99 463.673C410.99 459.469 407.577 456.055 403.373 456.055C399.17 456.055 395.756 459.469 395.756 463.673C395.756 467.877 399.17 471.291 403.373 471.291Z" fill="#393939"/>
<path d="M403.373 472.295C398.608 472.295 394.739 468.426 394.739 463.66C394.739 458.893 398.608 455.024 403.373 455.024C408.139 455.024 412.008 458.893 412.008 463.66C412.008 468.426 408.126 472.295 403.373 472.295C408.126 472.295 398.608 472.295 403.373 472.295ZM403.373 457.059C399.732 457.059 396.774 460.018 396.774 463.66C396.774 467.301 399.732 470.26 403.373 470.26C407.014 470.26 409.986 467.301 409.986 463.66C409.986 460.018 407.014 457.059 403.373 457.059C407.014 457.059 399.732 457.059 403.373 457.059Z" fill="#393939"/>
<path d="M65.4699 456.577C56.5277 456.577 49.2588 449.307 49.2588 440.363C49.2588 431.42 56.5277 424.15 65.4699 424.15C74.4121 424.15 81.681 431.42 81.681 440.363C81.681 449.294 74.3988 456.577 65.4699 456.577ZM65.4699 426.171C57.6522 426.171 51.2802 432.531 51.2802 440.363C51.2802 448.182 57.6388 454.555 65.4699 454.555C73.2877 454.555 79.6596 448.196 79.6596 440.363C79.6463 432.531 73.2877 426.171 65.4699 426.171Z" fill="#393939"/>
<path d="M74.586 440.363C74.586 435.329 70.5031 431.246 65.4697 431.246C60.4364 431.246 56.3535 435.329 56.3535 440.363C56.3535 445.397 60.4364 449.481 65.4697 449.481C70.5031 449.481 74.586 445.397 74.586 440.363Z" fill="#393939"/>
<path d="M169.323 319.25H-109.023L-180.963 247.299H-308.429V246.281H-180.548L-108.608 318.245H168.319V233.107H544.883V234.124H169.323V319.25Z" fill="#393939"/>
<path d="M542.875 236.561L553.865 233.616L542.875 230.67V236.561Z" fill="#393939"/>
<path d="M136.901 483.435H-42.4521V373.982H-366.192V372.965H-41.4348V482.417H135.883V395.257H627.973V396.274H136.901V483.435Z" fill="#393939"/>
<path d="M625.965 398.711L636.955 395.766L625.965 392.82V398.711Z" fill="#393939"/>
</svg>
