<svg viewBox="0 0 1283 1203" fill="none" xmlns="http://www.w3.org/2000/svg">
<g filter="url(#lines_right_blur)">
<path d="M1826.58 189.85L1826.58 482.446L2046.71 482.446L2046.71 486.406L1822.6 486.406L1822.6 199.422L1476.33 545.958L982.82 545.958L893.547 456.643L539.545 456.643L539.545 452.683L895.198 452.683L984.445 541.998L1474.7 541.998L1826.58 189.85Z" fill="#656565"/>
<path d="M540.384 439.729C532.156 439.729 525.474 446.416 525.474 454.65C525.474 462.884 532.156 469.571 540.384 469.571C548.612 469.571 555.293 462.884 555.293 454.65C555.293 446.416 548.612 439.729 540.384 439.729Z" fill="#656565"/>
<path d="M540.384 437.736C549.712 437.736 557.284 445.315 557.284 454.65C557.284 463.985 549.712 471.564 540.384 471.564C531.055 471.564 523.483 463.985 523.483 454.65C523.483 445.341 531.055 437.736 540.384 437.736C531.055 437.736 549.712 437.736 540.384 437.736ZM540.384 467.604C547.511 467.604 553.302 461.809 553.302 454.676C553.302 447.544 547.511 441.748 540.384 441.748C533.256 441.748 527.466 447.544 527.466 454.676C527.439 461.783 533.256 467.604 540.384 467.604C533.256 467.604 547.511 467.604 540.384 467.604Z" fill="#656565"/>
<path d="M1925.73 236.317L2046.71 236.317L2046.71 240.277L1929.72 240.277L1929.72 371.287L1433.85 371.287L1433.85 604.356L1109.75 279.979L733.918 279.979L733.918 276.019L1111.4 276.019L1429.89 594.759L1429.89 367.327L1925.73 367.327L1925.73 236.317Z" fill="#656565"/>
<path d="M734.757 263.065C726.53 263.065 719.848 269.752 719.848 277.986C719.848 286.22 726.53 292.906 734.757 292.906C742.985 292.906 749.667 286.22 749.667 277.986C749.667 269.752 742.985 263.065 734.757 263.065Z" fill="#656565"/>
<path d="M734.757 261.098C744.085 261.098 751.658 268.676 751.658 278.012C751.658 287.347 744.085 294.926 734.757 294.926C725.429 294.926 717.856 287.347 717.856 278.012C717.856 268.676 725.429 261.098 734.757 261.098C725.429 261.098 744.059 261.098 734.757 261.098ZM734.757 290.94C741.884 290.94 747.675 285.144 747.675 278.012C747.675 270.879 741.884 265.058 734.757 265.058C727.63 265.058 721.839 270.853 721.839 278.012C721.813 285.144 727.63 290.94 734.757 290.94C727.63 290.94 741.884 290.94 734.757 290.94Z" fill="#656565"/>
<path d="M987.275 768.984L987.275 795.338L964.478 782.148L987.275 768.984ZM985.283 791.903L985.283 772.419L968.435 782.148L985.283 791.903Z" fill="#656565"/>
<path d="M959.499 768.984L959.499 795.338L936.703 782.148L959.499 768.984ZM957.508 791.903L957.508 772.419L940.66 782.148L957.508 791.903Z" fill="#656565"/>
<path d="M931.725 768.984L931.725 795.338L908.928 782.148L931.725 768.984ZM929.759 791.903L929.759 772.419L912.911 782.148L929.759 791.903Z" fill="#656565"/>
<path d="M903.976 768.984L903.976 795.338L881.179 782.148L903.976 768.984ZM901.984 791.903L901.984 772.419L885.136 782.148L901.984 791.903Z" fill="#656565"/>
<path d="M1248.57 688.873L1755.18 688.873L1755.18 764.29L2046.71 764.29L2046.71 768.276L1751.2 768.276L1751.2 692.833L1250.22 692.833L1123.29 819.883L654.576 819.883L654.576 815.897L1121.64 815.897L1248.57 688.873Z" fill="#656565"/>
<path d="M655.414 802.969C647.186 802.969 640.505 809.656 640.505 817.89C640.505 826.124 647.186 832.811 655.414 832.811C663.642 832.811 670.323 826.124 670.323 817.89C670.323 809.656 663.642 802.969 655.414 802.969Z" fill="#656565"/>
<path d="M655.414 800.976C664.742 800.976 672.315 808.555 672.315 817.89C672.315 827.226 664.742 834.804 655.414 834.804C646.086 834.804 638.513 827.226 638.513 817.89C638.513 808.581 646.112 800.976 655.414 800.976C646.112 800.976 664.742 800.976 655.414 800.976ZM655.414 830.844C662.541 830.844 668.332 825.049 668.332 817.916C668.332 810.784 662.541 804.988 655.414 804.988C648.287 804.988 642.496 810.784 642.496 817.916C642.496 825.023 648.287 830.844 655.414 830.844C648.287 830.844 662.541 830.844 655.414 830.844Z" fill="#656565"/>
<path d="M1122.46 776.222C1145.44 776.222 1164.12 794.919 1164.12 817.916C1164.12 840.914 1145.44 859.611 1122.46 859.611C1099.48 859.611 1080.79 840.914 1080.79 817.916C1080.79 794.919 1099.5 776.222 1122.46 776.222ZM1122.46 855.599C1143.23 855.599 1160.14 838.685 1160.14 817.89C1160.14 797.095 1143.23 780.181 1122.46 780.181C1101.68 780.181 1084.78 797.095 1084.78 817.89C1084.78 838.685 1101.68 855.599 1122.46 855.599Z" fill="#656565"/>
<path d="M1122.46 794.08C1109.32 794.08 1098.66 804.74 1098.66 817.89C1098.66 831.04 1109.32 841.7 1122.46 841.7C1135.6 841.7 1146.25 831.04 1146.25 817.89C1146.25 804.74 1135.6 794.08 1122.46 794.08Z" fill="#656565"/>
<path d="M974.881 113.253L1287.09 113.253L1287.09 264.114L1580.64 264.114L1580.64 523.301L1654.85 597.565L2046.71 597.565L2046.71 601.551L1653.2 601.551L1576.66 524.953L1576.66 268.073L1283.13 268.073L1283.13 117.213L976.532 117.213L871.405 222.419L622.844 222.419L622.844 218.459L869.755 218.459L974.881 113.253Z" fill="#656565"/>
<path d="M623.683 205.505C615.455 205.505 608.774 212.192 608.774 220.426C608.774 228.66 615.455 235.347 623.683 235.347C631.911 235.347 638.593 228.66 638.593 220.426C638.593 212.192 631.911 205.505 623.683 205.505Z" fill="#656565"/>
<path d="M623.683 203.539C633.011 203.539 640.584 211.117 640.584 220.453C640.584 229.788 633.011 237.366 623.683 237.366C614.354 237.366 606.782 229.788 606.782 220.453C606.782 211.117 614.381 203.539 623.683 203.539C614.381 203.539 633.011 203.539 623.683 203.539ZM623.683 233.381C630.81 233.381 636.601 227.585 636.601 220.453C636.601 213.32 630.81 207.525 623.683 207.525C616.555 207.525 610.738 213.32 610.738 220.453C610.738 227.585 616.555 233.381 623.683 233.381C616.555 233.381 630.81 233.381 623.683 233.381Z" fill="#656565"/>
<path d="M1285.1 234.324C1302.6 234.324 1316.83 248.563 1316.83 266.08C1316.83 283.597 1302.6 297.836 1285.1 297.836C1267.59 297.836 1253.37 283.597 1253.37 266.08C1253.37 248.59 1267.62 234.324 1285.1 234.324ZM1285.1 293.877C1300.4 293.877 1312.87 281.421 1312.87 266.08C1312.87 250.766 1300.43 238.284 1285.1 238.284C1269.79 238.284 1257.32 250.74 1257.32 266.08C1257.35 281.421 1269.79 293.877 1285.1 293.877Z" fill="#656565"/>
<path d="M1267.25 266.08C1267.25 275.94 1275.25 283.938 1285.1 283.938C1294.95 283.938 1302.94 275.94 1302.94 266.08C1302.94 256.22 1294.95 248.222 1285.1 248.222C1275.25 248.222 1267.25 256.22 1267.25 266.08Z" fill="#656565"/>
<path d="M1081.82 503.293L1626.65 503.293L1767.47 644.215L2016.97 644.215L2016.97 646.208L1766.66 646.208L1625.84 505.26L1083.78 505.26L1083.78 672.012L346.692 672.012L346.692 670.019L1081.82 670.019L1081.82 503.293Z" fill="#656565"/>
<path d="M350.622 665.247L329.11 671.016L350.622 676.785L350.622 665.247Z" fill="#656565"/>
<path d="M1145.28 181.721L1496.35 181.721L1496.35 396.094L2130.04 396.094L2130.04 398.087L1494.35 398.087L1494.35 183.714L1147.27 183.714L1147.27 354.426L184.049 354.426L184.049 352.433L1145.28 352.433L1145.28 181.721Z" fill="#656565"/>
<path d="M187.98 347.66L166.468 353.429L187.98 359.198L187.98 347.66Z" fill="#656565"/>
</g>
<defs>
<filter id="lines_right_blur" x="-20" y="-378" width="2246" height="1601" filterUnits="userSpaceOnUse" color-interpolation-filters="sRGB">
<feFlood flood-opacity="0" result="BackgroundImageFix"/>
<feBlend mode="normal" in="SourceGraphic" in2="BackgroundImageFix" result="shape"/>
<feGaussianBlur stdDeviation="10" result="effect1_foregroundBlur"/>
</filter>
</defs>
</svg>
