<svg viewBox="0 0 1004 382" fill="none" xmlns="http://www.w3.org/2000/svg">
<path d="M155.835 342.284L155.835 192.894L43.3748 192.894L43.3748 190.872L157.87 190.872L157.87 337.397L334.773 160.466L586.895 160.466L632.503 206.068L813.355 206.068L813.355 208.09L631.66 208.09L586.065 162.488L335.603 162.488L155.835 342.284Z" fill="#ACACAC"/>
<path d="M812.927 214.704C817.13 214.704 820.544 211.29 820.544 207.086C820.544 202.882 817.13 199.468 812.927 199.468C808.724 199.467 805.31 202.882 805.31 207.086C805.31 211.29 808.724 214.704 812.927 214.704Z" fill="#ACACAC"/>
<path d="M812.927 215.721C808.161 215.721 804.293 211.852 804.293 207.086C804.293 202.319 808.161 198.45 812.927 198.45C817.693 198.45 821.561 202.319 821.561 207.086C821.561 211.839 817.693 215.721 812.927 215.721C808.161 215.721 817.693 215.721 812.927 215.721ZM812.927 200.472C809.286 200.472 806.328 203.431 806.328 207.072C806.328 210.714 809.286 213.673 812.927 213.673C816.568 213.673 819.527 210.714 819.527 207.072C819.54 203.444 816.568 200.472 812.927 200.472C809.286 200.472 816.568 200.472 812.927 200.472Z" fill="#ACACAC"/>
<path d="M105.18 318.559L43.3747 318.559L43.3747 316.538L103.146 316.538L103.146 249.648L356.473 249.648L356.473 130.65L522.051 296.267L714.054 296.267L714.054 298.289L521.207 298.289L358.494 135.55L358.494 251.67L105.18 251.67L105.18 318.559Z" fill="#ACACAC"/>
<path d="M713.626 304.903C717.829 304.903 721.243 301.489 721.243 297.285C721.243 293.081 717.829 289.667 713.626 289.667C709.422 289.667 706.009 293.081 706.009 297.285C706.009 301.489 709.422 304.903 713.626 304.903Z" fill="#ACACAC"/>
<path d="M713.626 305.907C708.86 305.907 704.991 302.038 704.991 297.272C704.991 292.505 708.86 288.636 713.626 288.636C718.391 288.636 722.26 292.505 722.26 297.272C722.26 302.038 718.391 305.907 713.626 305.907C718.391 305.907 708.873 305.907 713.626 305.907ZM713.626 290.671C709.985 290.671 707.026 293.63 707.026 297.272C707.026 300.913 709.985 303.886 713.626 303.886C717.267 303.886 720.225 300.927 720.225 297.272C720.239 293.63 717.267 290.671 713.626 290.671C717.267 290.671 709.985 290.671 713.626 290.671Z" fill="#ACACAC"/>
<path d="M584.62 46.5958L584.62 33.1402L596.266 39.8747L584.62 46.5958ZM585.637 34.8941L585.637 44.8419L594.245 39.8747L585.637 34.8941Z" fill="#ACACAC"/>
<path d="M598.81 46.5958L598.81 33.1402L610.456 39.8747L598.81 46.5958ZM599.827 34.8941L599.827 44.8419L608.434 39.8747L599.827 34.8941Z" fill="#ACACAC"/>
<path d="M612.999 46.5958L612.999 33.1402L624.646 39.8747L612.999 46.5958ZM614.003 34.8941L614.003 44.8419L622.611 39.8747L614.003 34.8941Z" fill="#ACACAC"/>
<path d="M627.176 46.5958L627.176 33.1402L638.822 39.8747L627.176 46.5958ZM628.193 34.8941L628.193 44.8419L636.8 39.8747L628.193 34.8941Z" fill="#ACACAC"/>
<path d="M451.129 87.4981L192.313 87.498L192.313 48.9923L43.3748 48.9922L43.3748 46.9571L194.348 46.9572L194.348 85.4763L450.286 85.4764L515.13 20.6084L754.589 20.6084L754.589 22.6435L515.973 22.6434L451.129 87.4981Z" fill="#ACACAC"/>
<path d="M754.16 29.2441C758.364 29.2441 761.777 25.83 761.777 21.626C761.777 17.4219 758.364 14.0078 754.16 14.0078C749.957 14.0078 746.543 17.4219 746.543 21.626C746.543 25.83 749.957 29.2441 754.16 29.2441Z" fill="#ACACAC"/>
<path d="M754.16 30.2616C749.395 30.2616 745.526 26.3923 745.526 21.6259C745.526 16.8596 749.395 12.9902 754.16 12.9902C758.926 12.9902 762.794 16.8596 762.794 21.6259C762.794 26.3789 758.912 30.2616 754.16 30.2616C758.912 30.2616 749.395 30.2616 754.16 30.2616ZM754.16 15.0119C750.519 15.0119 747.561 17.9708 747.561 21.6125C747.561 25.2542 750.519 28.2131 754.16 28.2131C757.801 28.2131 760.76 25.2543 760.76 21.6125C760.76 17.9842 757.801 15.0119 754.16 15.0119C757.801 15.0119 750.519 15.0119 754.16 15.0119Z" fill="#ACACAC"/>
<path d="M515.558 42.9005C503.818 42.9005 494.274 33.3544 494.274 21.6125C494.274 9.87065 503.818 0.324526 515.558 0.324528C527.298 0.32453 536.843 9.87066 536.843 21.6125C536.843 33.3544 527.285 42.9005 515.558 42.9005ZM515.558 2.37299C504.943 2.37299 496.309 11.0087 496.309 21.6259C496.309 32.2431 504.943 40.8788 515.558 40.8788C526.174 40.8788 534.808 32.2431 534.808 21.6259C534.808 11.0087 526.174 2.37299 515.558 2.37299Z" fill="#ACACAC"/>
<path d="M515.558 33.7828C522.271 33.7828 527.713 28.34 527.713 21.6259C527.713 14.9118 522.271 9.469 515.558 9.469C508.845 9.469 503.403 14.9118 503.403 21.6259C503.403 28.34 508.845 33.7828 515.558 33.7828Z" fill="#ACACAC"/>
<path d="M590.951 381.393L431.451 381.392L431.451 304.368L281.481 304.368L281.481 172.034L243.571 134.117L43.3748 134.117L43.3748 132.082L244.414 132.082L283.516 171.191L283.516 302.346L433.472 302.346L433.472 379.371L590.108 379.371L643.815 325.656L770.8 325.656L770.8 327.677L644.658 327.677L590.951 381.393Z" fill="#ACACAC"/>
<path d="M770.371 334.291C774.575 334.291 777.988 330.877 777.988 326.673C777.988 322.469 774.575 319.055 770.371 319.055C766.168 319.055 762.754 322.469 762.754 326.673C762.754 330.877 766.168 334.291 770.371 334.291Z" fill="#ACACAC"/>
<path d="M770.371 335.295C765.606 335.295 761.737 331.426 761.737 326.66C761.737 321.893 765.606 318.024 770.371 318.024C775.137 318.024 779.006 321.893 779.006 326.66C779.006 331.426 775.123 335.295 770.371 335.295C775.123 335.295 765.606 335.295 770.371 335.295ZM770.371 320.059C766.73 320.059 763.772 323.018 763.772 326.66C763.772 330.301 766.73 333.26 770.371 333.26C774.012 333.26 776.984 330.301 776.984 326.66C776.984 323.018 774.012 320.059 770.371 320.059C774.012 320.059 766.73 320.059 770.371 320.059Z" fill="#ACACAC"/>
<path d="M432.468 319.577C423.526 319.577 416.257 312.307 416.257 303.363C416.257 294.42 423.526 287.15 432.468 287.15C441.41 287.15 448.679 294.42 448.679 303.363C448.679 312.294 441.397 319.577 432.468 319.577ZM432.468 289.171C424.65 289.171 418.278 295.531 418.278 303.363C418.278 311.182 424.637 317.555 432.468 317.555C440.286 317.555 446.658 311.196 446.658 303.363C446.644 295.531 440.286 289.171 432.468 289.171Z" fill="#ACACAC"/>
<path d="M441.584 303.363C441.584 298.329 437.501 294.246 432.468 294.246C427.435 294.246 423.352 298.329 423.352 303.363C423.352 308.398 427.435 312.481 432.468 312.481C437.501 312.481 441.584 308.398 441.584 303.363Z" fill="#ACACAC"/>
<path d="M536.321 182.25L257.975 182.25L186.035 110.299L58.5686 110.299L58.5686 109.281L186.45 109.281L258.39 181.245L535.317 181.246L535.317 96.1071L911.881 96.1071L911.881 97.1247L536.321 97.1246L536.321 182.25Z" fill="#ACACAC"/>
<path d="M909.873 99.5613L920.863 96.6158L909.873 93.6703L909.873 99.5613Z" fill="#ACACAC"/>
<path d="M503.899 346.435L324.546 346.435L324.546 236.982L0.805664 236.982L0.805664 235.965L325.563 235.965L325.563 345.417L502.881 345.417L502.881 258.257L994.971 258.257L994.971 259.275L503.899 259.275L503.899 346.435Z" fill="#ACACAC"/>
<path d="M992.963 261.711L1003.95 258.766L992.963 255.82L992.963 261.711Z" fill="#ACACAC"/>
</svg>
