<svg  viewBox="0 0 160 138" fill="none" xmlns="http://www.w3.org/2000/svg">
<path d="M16.3821 -148.28L78.9628 -148.28L78.9628 -195.591L79.8098 -195.591L79.8098 -147.424L18.4292 -147.424L92.5469 -73.0015L92.5469 33.0651L73.444 52.2522L73.444 132.246L72.5971 132.246L72.5971 51.8974L91.7 32.716L91.7 -72.6524L16.3821 -148.28Z" fill="#ACACAC"/>
<path d="M69.8264 133.949C69.8264 135.717 71.2566 137.153 73.0177 137.153C74.7788 137.153 76.209 135.717 76.209 133.949C76.209 132.181 74.7788 130.745 73.0177 130.745C71.2566 130.745 69.8264 132.181 69.8264 133.949Z" fill="#ACACAC"/>
<path d="M69.4004 133.949C69.4004 131.945 71.0212 130.317 73.0179 130.317C75.0146 130.317 76.6355 131.945 76.6355 133.949C76.6355 135.954 75.0146 137.582 73.0179 137.582C71.0269 137.582 69.4004 135.954 69.4004 133.949C69.4004 131.945 69.4004 135.954 69.4004 133.949ZM75.7886 133.949C75.7886 132.418 74.5491 131.173 73.0235 131.173C71.498 131.173 70.2585 132.418 70.2585 133.949C70.2585 135.481 71.498 136.726 73.0235 136.726C74.5435 136.731 75.7886 135.481 75.7886 133.949C75.7886 132.418 75.7886 135.481 75.7886 133.949Z" fill="#ACACAC"/>
<path d="M26.3208 -169.59L26.3208 -195.591L27.1677 -195.591L27.1677 -170.446L55.1883 -170.446L55.1883 -63.8726L105.038 -63.8726L35.6592 5.78537L35.6592 86.5602L34.8122 86.5602L34.8122 5.43057L102.985 -63.0222L54.3414 -63.0222L54.3414 -169.59L26.3208 -169.59Z" fill="#ACACAC"/>
<path d="M32.0413 86.3798C32.0413 88.1482 33.4714 89.5843 35.2325 89.5843C36.9936 89.5843 38.4238 88.1482 38.4238 86.3798C38.4238 84.6115 36.9936 83.1754 35.2325 83.1754C33.4714 83.1754 32.0413 84.6115 32.0413 86.3798Z" fill="#ACACAC"/>
<path d="M31.6206 86.3799C31.6206 84.3751 33.2415 82.7476 35.2382 82.7476C37.2348 82.7476 38.8557 84.3751 38.8557 86.3799C38.8557 88.3848 37.2348 90.0123 35.2382 90.0123C33.2415 90.0123 31.6206 88.3848 31.6206 86.3799C31.6206 84.3807 31.6206 88.3848 31.6206 86.3799ZM38.0032 86.3799C38.0032 84.8481 36.7637 83.6035 35.2382 83.6035C33.7126 83.6035 32.4675 84.8481 32.4675 86.3799C32.4675 87.9117 33.707 89.1563 35.2382 89.1563C36.7637 89.1619 38.0032 87.9117 38.0032 86.3799C38.0032 84.8481 38.0032 87.9117 38.0032 86.3799Z" fill="#ACACAC"/>
<path d="M140.248 32.1077L145.885 32.1077L143.064 37.0073L140.248 32.1077ZM145.15 32.5357L140.983 32.5357L143.064 36.1569L145.15 32.5357Z" fill="#ACACAC"/>
<path d="M140.248 38.0773L145.885 38.0773L143.064 42.9768L140.248 38.0773ZM145.15 38.5053L140.983 38.5053L143.064 42.1264L145.15 38.5053Z" fill="#ACACAC"/>
<path d="M140.248 44.0476L145.885 44.0476L143.064 48.9471L140.248 44.0476ZM145.15 44.47L140.983 44.47L143.064 48.0911L145.15 44.47Z" fill="#ACACAC"/>
<path d="M140.248 50.0116L145.885 50.0116L143.064 54.9111L140.248 50.0116ZM145.15 50.4396L140.983 50.4396L143.064 54.0608L145.15 50.4396Z" fill="#ACACAC"/>
<path d="M123.114 -24.0514L123.114 -132.934L139.245 -132.934L139.245 -195.592L140.097 -195.592L140.097 -132.078L123.961 -132.078L123.961 -24.4062L151.135 2.87357L151.135 117.001L150.282 117.001L150.282 3.22836L123.114 -24.0514Z" fill="#ACACAC"/>
<path d="M147.517 117.18C147.517 118.948 148.947 120.384 150.708 120.384C152.469 120.384 153.9 118.948 153.9 117.18C153.9 115.412 152.469 113.976 150.708 113.976C148.947 113.976 147.517 115.412 147.517 117.18Z" fill="#ACACAC"/>
<path d="M147.091 117.18C147.091 115.175 148.712 113.547 150.708 113.547C152.705 113.547 154.326 115.175 154.326 117.18C154.326 119.185 152.705 120.812 150.708 120.812C148.717 120.812 147.091 119.179 147.091 117.18C147.091 119.179 147.091 115.175 147.091 117.18ZM153.479 117.18C153.479 115.648 152.24 114.403 150.714 114.403C149.188 114.403 147.949 115.648 147.949 117.18C147.949 118.712 149.188 119.956 150.714 119.956C152.234 119.956 153.479 118.712 153.479 117.18C153.479 118.712 153.479 115.648 153.479 117.18Z" fill="#ACACAC"/>
<path d="M141.796 3.05314C141.796 -1.88582 145.795 -5.90118 150.714 -5.90118C155.633 -5.90118 159.632 -1.88582 159.632 3.05314C159.632 7.9921 155.633 12.0075 150.714 12.0075C145.795 12.0075 141.796 7.98647 141.796 3.05314ZM158.773 3.05314C158.773 -1.41276 155.156 -5.04516 150.708 -5.04516C146.261 -5.04516 142.643 -1.41276 142.643 3.05314C142.643 7.51904 146.261 11.1515 150.708 11.1515C155.156 11.1515 158.773 7.51904 158.773 3.05314Z" fill="#ACACAC"/>
<path d="M145.616 3.05373C145.616 5.87786 147.896 8.16729 150.708 8.16729C153.521 8.16729 155.801 5.87786 155.801 3.05373C155.801 0.229592 153.521 -2.05981 150.708 -2.05981C147.896 -2.05981 145.616 0.229592 145.616 3.05373Z" fill="#ACACAC"/>
<path d="M3.57069e-05 34.7715L3.864e-05 -32.3297L32.2663 -32.3297L32.2663 -95.4212L87.7017 -95.4212L103.585 -111.37L103.585 -195.591L104.438 -195.591L104.438 -111.015L88.055 -94.5652L33.1132 -94.5652L33.1132 -31.4793L0.846947 -31.4793L0.846944 34.4167L23.3486 57.0109L23.3486 115.476L22.5017 115.476L22.5017 57.3657L3.57069e-05 34.7715Z" fill="#ACACAC"/>
<path d="M19.7312 115.655C19.7312 117.423 21.1614 118.86 22.9225 118.86C24.6836 118.86 26.1138 117.423 26.1138 115.655C26.1138 113.887 24.6836 112.451 22.9225 112.451C21.1614 112.451 19.7312 113.887 19.7312 115.655Z" fill="#ACACAC"/>
<path d="M19.3103 115.656C19.3103 113.651 20.9312 112.023 22.9278 112.023C24.9245 112.023 26.5454 113.651 26.5454 115.656C26.5454 117.66 24.9245 119.288 22.9278 119.288C20.9312 119.288 19.3103 117.655 19.3103 115.656C19.3103 113.651 19.3103 117.655 19.3103 115.656ZM25.6929 115.656C25.6929 114.124 24.4534 112.879 22.9278 112.879C21.4023 112.879 20.1628 114.124 20.1628 115.656C20.1628 117.187 21.4023 118.438 22.9278 118.438C24.4534 118.438 25.6929 117.187 25.6929 115.656C25.6929 114.124 25.6929 117.187 25.6929 115.656Z" fill="#ACACAC"/>
<path d="M83.4219 11.7887L83.4219 -105.31L113.562 -135.575L113.562 -189.2L113.989 -189.2L113.989 -135.4L83.8425 -105.136L83.8425 11.3663L119.508 11.3663L119.508 126.148L119.081 126.148L119.081 11.7887L83.4219 11.7887Z" fill="#ACACAC"/>
<path d="M118.06 125.336L119.294 129.959L120.528 125.336L118.06 125.336Z" fill="#ACACAC"/>
<path d="M14.6439 -1.85102L14.6439 -77.304L60.4942 -77.304L60.4942 -204L60.9204 -204L60.9204 -76.876L15.0702 -76.876L15.0702 -2.27901L51.5821 -2.27901L51.5821 120.812L51.1559 120.812L51.1559 -1.85101L14.6439 -1.85102Z" fill="#ACACAC"/>
<path d="M50.1352 120.762L51.3691 125.386L52.603 120.762L50.1352 120.762Z" fill="#ACACAC"/>
</svg>
