<svg viewBox="0 0 1004 382" fill="none" xmlns="http://www.w3.org/2000/svg">
<path d="M848.159 39.7159L848.159 189.107L960.62 189.107L960.62 191.128L846.125 191.128L846.125 44.6027L669.221 221.534L417.099 221.534L371.491 175.932L190.639 175.932L190.639 173.91L372.335 173.91L417.929 219.512L668.391 219.512L848.159 39.7159Z" fill="#ACACAC"/>
<path d="M191.067 167.296C186.864 167.296 183.45 170.711 183.45 174.915C183.45 179.119 186.864 182.533 191.067 182.533C195.271 182.533 198.684 179.119 198.684 174.915C198.684 170.711 195.271 167.296 191.067 167.296Z" fill="#ACACAC"/>
<path d="M191.067 166.279C195.833 166.279 199.702 170.148 199.702 174.915C199.702 179.681 195.833 183.55 191.067 183.55C186.302 183.55 182.433 179.681 182.433 174.915C182.433 170.162 186.302 166.279 191.067 166.279C195.833 166.279 186.302 166.279 191.067 166.279ZM191.067 181.529C194.709 181.529 197.667 178.57 197.667 174.928C197.667 171.286 194.709 168.327 191.067 168.327C187.426 168.327 184.468 171.286 184.468 174.928C184.454 178.556 187.426 181.529 191.067 181.529C194.709 181.529 187.426 181.529 191.067 181.529Z" fill="#ACACAC"/>
<path d="M898.814 63.4406L960.62 63.4406L960.62 65.4622L900.849 65.4623L900.849 132.352L647.522 132.352L647.522 251.35L481.944 85.7327L289.94 85.7328L289.94 83.7111L482.787 83.711L645.5 246.45L645.5 130.33L898.814 130.33L898.814 63.4406Z" fill="#ACACAC"/>
<path d="M290.369 77.0971C286.165 77.0971 282.752 80.5112 282.752 84.7152C282.752 88.9193 286.165 92.3334 290.369 92.3334C294.572 92.3334 297.986 88.9193 297.986 84.7152C297.986 80.5112 294.572 77.0971 290.369 77.0971Z" fill="#ACACAC"/>
<path d="M290.369 76.0929C295.134 76.0929 299.003 79.9622 299.003 84.7286C299.003 89.495 295.134 93.3643 290.369 93.3643C285.603 93.3643 281.734 89.495 281.734 84.7286C281.734 79.9622 285.603 76.0929 290.369 76.0929C285.603 76.0929 295.121 76.0929 290.369 76.0929ZM290.369 91.3292C294.01 91.3292 296.968 88.3703 296.968 84.7286C296.968 81.0869 294.01 78.1146 290.369 78.1146C286.728 78.1146 283.769 81.0735 283.769 84.7286C283.756 88.3703 286.728 91.3292 290.369 91.3292C286.728 91.3292 294.01 91.3292 290.369 91.3292Z" fill="#ACACAC"/>
<path d="M419.375 335.404L419.375 348.86L407.728 342.126L419.375 335.404ZM418.357 347.106L418.357 337.158L409.75 342.126L418.357 347.106Z" fill="#ACACAC"/>
<path d="M405.185 335.404L405.185 348.86L393.539 342.126L405.185 335.404ZM404.168 347.106L404.168 337.158L395.56 342.126L404.168 347.106Z" fill="#ACACAC"/>
<path d="M390.995 335.404L390.995 348.86L379.349 342.126L390.995 335.404ZM389.991 347.106L389.991 337.158L381.384 342.126L389.991 347.106Z" fill="#ACACAC"/>
<path d="M376.819 335.404L376.819 348.86L365.173 342.126L376.819 335.404ZM375.801 347.106L375.801 337.158L367.194 342.126L375.801 347.106Z" fill="#ACACAC"/>
<path d="M552.866 294.502L811.681 294.502L811.681 333.008L960.62 333.008L960.62 335.043L809.646 335.043L809.646 296.524L553.709 296.524L488.865 361.392L249.406 361.392L249.406 359.357L488.021 359.357L552.866 294.502Z" fill="#ACACAC"/>
<path d="M249.834 352.756C245.631 352.756 242.218 356.17 242.218 360.374C242.218 364.578 245.631 367.992 249.834 367.992C254.038 367.992 257.451 364.578 257.451 360.374C257.451 356.17 254.038 352.756 249.834 352.756Z" fill="#ACACAC"/>
<path d="M249.834 351.739C254.6 351.739 258.469 355.608 258.469 360.374C258.469 365.141 254.6 369.01 249.834 369.01C245.069 369.01 241.2 365.141 241.2 360.374C241.2 355.621 245.082 351.739 249.834 351.739C254.6 351.739 245.082 351.739 249.834 351.739ZM249.834 366.988C253.476 366.988 256.434 364.029 256.434 360.388C256.434 356.746 253.476 353.787 249.834 353.787C246.193 353.787 243.235 356.746 243.235 360.388C243.235 364.016 246.193 366.988 249.834 366.988C253.476 366.988 246.193 366.988 249.834 366.988Z" fill="#ACACAC"/>
<path d="M488.436 339.1C500.176 339.1 509.721 348.646 509.721 360.388C509.721 372.129 500.176 381.676 488.436 381.676C476.696 381.676 467.151 372.129 467.151 360.388C467.151 348.646 476.71 339.1 488.436 339.1ZM488.436 379.627C499.052 379.627 507.686 370.991 507.686 360.374C507.686 349.757 499.052 341.121 488.436 341.121C477.821 341.121 469.186 349.757 469.186 360.374C469.186 370.991 477.821 379.627 488.436 379.627Z" fill="#ACACAC"/>
<path d="M488.436 348.217C481.723 348.217 476.281 353.66 476.281 360.374C476.281 367.088 481.723 372.531 488.436 372.531C495.149 372.531 500.591 367.088 500.591 360.374C500.591 353.66 495.149 348.217 488.436 348.217Z" fill="#ACACAC"/>
<path d="M413.043 0.607653L572.544 0.607639L572.544 77.6326L722.513 77.6326L722.513 209.966L760.424 247.883L960.62 247.883L960.62 249.918L759.581 249.918L720.479 210.81L720.479 79.6543L570.522 79.6543L570.522 2.62934L413.886 2.62935L360.18 56.3446L233.195 56.3447L233.195 54.323L359.336 54.3229L413.043 0.607653Z" fill="#ACACAC"/>
<path d="M233.623 47.709C229.42 47.709 226.006 51.1231 226.006 55.3271C226.006 59.5311 229.42 62.9453 233.623 62.9453C237.827 62.9453 241.24 59.5311 241.24 55.3271C241.24 51.1231 237.827 47.709 233.623 47.709Z" fill="#ACACAC"/>
<path d="M233.623 46.7048C238.389 46.7048 242.258 50.5741 242.258 55.3405C242.258 60.1069 238.389 63.9762 233.623 63.9762C228.858 63.9762 224.989 60.1069 224.989 55.3405C224.989 50.5741 228.871 46.7048 233.623 46.7048C238.389 46.7048 228.871 46.7048 233.623 46.7048ZM233.623 61.9411C237.264 61.9411 240.223 58.9822 240.223 55.3405C240.223 51.6988 237.264 48.7399 233.623 48.7399C229.982 48.7399 227.01 51.6988 227.01 55.3405C227.01 58.9822 229.982 61.9411 233.623 61.9411C237.264 61.9411 229.982 61.9411 233.623 61.9411Z" fill="#ACACAC"/>
<path d="M571.526 62.4231C580.469 62.4231 587.738 69.6931 587.738 78.6367C587.738 87.5803 580.469 94.8504 571.526 94.8504C562.584 94.8504 555.315 87.5803 555.315 78.6367C555.315 69.7065 562.598 62.4231 571.526 62.4231ZM571.526 92.8287C579.344 92.8287 585.716 86.4691 585.716 78.6367C585.716 70.8177 579.358 64.4447 571.526 64.4447C563.709 64.4447 557.337 70.8043 557.337 78.6367C557.35 86.4691 563.709 92.8287 571.526 92.8287Z" fill="#ACACAC"/>
<path d="M562.41 78.6367C562.41 83.6709 566.493 87.7544 571.526 87.7544C576.56 87.7544 580.643 83.6709 580.643 78.6367C580.643 73.6026 576.56 69.5191 571.526 69.5191C566.493 69.5191 562.41 73.6026 562.41 78.6367Z" fill="#ACACAC"/>
<path d="M467.674 199.751L746.02 199.751L817.959 271.701L945.426 271.701L945.426 272.719L817.544 272.719L745.605 200.755L468.678 200.755L468.678 285.893L92.114 285.893L92.114 284.876L467.674 284.876L467.674 199.751Z" fill="#ACACAC"/>
<path d="M94.1221 282.439L83.1318 285.384L94.1221 288.33L94.1221 282.439Z" fill="#ACACAC"/>
<path d="M500.096 35.5655L679.449 35.5655L679.449 145.018L1003.19 145.018L1003.19 146.035L678.431 146.035L678.431 36.583L501.113 36.583L501.113 123.743L9.02356 123.743L9.02356 122.726L500.096 122.726L500.096 35.5655Z" fill="#ACACAC"/>
<path d="M11.0315 120.289L0.0412595 123.234L11.0315 126.18L11.0315 120.289Z" fill="#ACACAC"/>
</svg>
