<svg viewBox="0 0 16 15" fill="none" xmlns="http://www.w3.org/2000/svg">
<path d="M12.4944 0.771973H3.51857C1.95432 0.771973 0.743896 1.95761 0.743896 3.48981V6.40829V12.2817C0.743896 13.8139 1.95432 14.9996 3.51857 14.9996H12.4944C14.0586 14.9996 15.269 13.8139 15.269 12.2817V6.40829V3.48981C15.269 1.95761 14.0586 0.771973 12.4944 0.771973ZM11.1349 2.37714H13.2951L13.593 2.3589V2.68723V4.80312H11.1349V2.37714ZM5.9208 6.40829C6.38635 5.76987 7.14985 5.35034 8.00646 5.35034C8.86307 5.35034 9.62657 5.76987 10.0921 6.40829C10.3901 6.82782 10.5763 7.33855 10.5763 7.88577C10.5763 9.27205 9.42173 10.403 8.00646 10.403C6.59119 10.403 5.43663 9.27205 5.43663 7.88577C5.43663 7.33855 5.62285 6.82782 5.9208 6.40829ZM13.9655 12.2817C13.9655 13.0478 13.2765 13.7227 12.4944 13.7227H3.51857C2.73645 13.7227 2.04743 13.0478 2.04743 12.2817V6.42653H4.30069C4.11447 6.79134 4.00274 7.3568 4.00274 7.88577C4.00274 10.0564 5.79045 11.8075 8.00646 11.8075C10.2225 11.8075 12.0102 10.0381 12.0102 7.88577C12.0102 7.37504 11.8984 6.79134 11.7122 6.42653H13.9655V12.2817Z" fill="currentColor"/>
</svg>
