<svg viewBox="0 0 209 171" fill="none" xmlns="http://www.w3.org/2000/svg">
<path d="M144.225 169.53V13.7277H131.255V0.745392H157.19V169.53H144.225Z" fill="url(#paint0_linear)"/>
<path d="M196.035 156.547V13.7277H183.069V156.543H196.035V156.547ZM170.099 169.53V0.745361H209V169.53H170.099Z" fill="url(#paint1_linear)"/>
<path d="M81.6209 47.0016L83.0384 35.3114L73.0165 34.307C68.971 33.9061 64.9208 33.576 60.8612 33.4393C57.4892 33.3214 53.6791 33.5477 50.1187 34.4437C45.9037 35.5142 42.0325 37.5372 39.5882 41.0881C36.9509 44.9361 36.5176 49.9678 36.5176 56.2727V74.9845C36.5176 81.4828 38.2083 86.3164 41.764 89.6032C46.483 93.9699 53.7168 95.2432 59.9193 94.8989L84.6538 93.5267V69.0852C93.0179 67.8591 101.801 65.2844 101.801 63.5584C101.801 61.2242 85.6758 57.3243 76.3132 57.3243V57.329H59.1563C58.5535 57.329 58.0637 57.8194 58.0637 58.423V63.5631V68.7032C58.0637 69.3021 58.5535 69.7973 59.1563 69.7973H72.1782V82.2137L56.6273 82.6853C52.6054 82.6853 49.8974 80.1199 49.8974 76.5219C49.8974 74.4092 49.9256 57.4705 49.8974 53.8299C49.8597 48.8077 51.9555 46.2424 56.9523 45.6812C61.6383 45.1578 67.464 45.7803 72.2442 46.1952L81.6209 47.0016Z" fill="url(#paint2_linear)"/>
<path d="M127.285 65.1949C127.285 30.0016 98.792 1.47165 63.64 1.47165C28.4927 1.47165 0 30.0016 0 65.1949C0 100.388 28.4927 128.918 63.64 128.918C98.7873 128.923 127.285 100.393 127.285 65.1949ZM113.66 65.1949C113.66 92.8524 91.2662 115.28 63.64 115.28C36.0186 115.28 13.6247 92.8571 13.6247 65.1949C13.6247 37.5326 36.0186 15.1094 63.64 15.1094C91.2662 15.1094 113.66 37.5373 113.66 65.1949Z" fill="url(#paint3_linear)"/>
<path d="M25.2855 155.934V160.82C25.2855 161.664 25.4315 162.532 25.8507 163.277C26.218 163.927 26.7408 164.408 27.4142 164.734C28.2243 165.125 29.1474 165.257 30.0375 165.257C31.2902 165.257 32.6936 165.026 33.6308 164.125C34.5351 163.262 34.7894 162.027 34.7894 160.82V155.934C34.7894 155.114 34.6481 154.293 34.2619 153.558C33.9087 152.893 33.3859 152.397 32.7219 152.044C31.9071 151.61 30.9464 151.468 30.0375 151.468C29.1615 151.468 28.2714 151.615 27.4802 152.006C26.7973 152.346 26.2557 152.841 25.8695 153.496C25.4409 154.237 25.2855 155.09 25.2855 155.934ZM113.514 155.934V160.82C113.514 161.664 113.66 162.532 114.079 163.277C114.447 163.927 114.969 164.408 115.643 164.734C116.453 165.125 117.376 165.257 118.271 165.257C119.523 165.257 120.922 165.026 121.864 164.125C122.768 163.262 123.027 162.027 123.027 160.82V155.934C123.027 155.114 122.886 154.293 122.5 153.558C122.147 152.893 121.624 152.397 120.96 152.044C120.145 151.61 119.184 151.468 118.275 151.468C117.399 151.468 116.509 151.615 115.718 152.006C115.035 152.346 114.494 152.841 114.107 153.496C113.669 154.237 113.514 155.09 113.514 155.934ZM4.17736 151.634V157.542H7.31392C7.81313 157.542 8.33118 157.514 8.81626 157.415C9.16006 157.344 9.49444 157.217 9.7723 157C10.0313 156.802 10.2009 156.528 10.3139 156.227C10.4881 155.769 10.5305 155.213 10.5305 154.722C10.5305 154.105 10.4599 153.369 10.1585 152.817C9.93242 152.402 9.60747 152.11 9.16477 151.931C8.59492 151.695 7.92145 151.634 7.30921 151.634H4.17736ZM21.0234 160.631V156.179C21.0234 155.057 21.2071 153.954 21.6215 152.911C22.0218 151.912 22.6105 151.03 23.3923 150.294C24.2118 149.521 25.1866 148.969 26.2463 148.592C27.4566 148.158 28.7518 147.993 30.0327 147.993C31.3137 147.993 32.6089 148.163 33.8192 148.592C34.8789 148.969 35.8585 149.521 36.6732 150.294C37.455 151.035 38.0437 151.912 38.444 152.911C38.8631 153.954 39.0421 155.057 39.0421 156.179V160.631C39.0421 161.749 38.8631 162.847 38.444 163.885C38.0484 164.88 37.455 165.743 36.6732 166.474C35.8537 167.243 34.8789 167.785 33.8192 168.153C32.6042 168.572 31.3043 168.737 30.0233 168.737C28.7423 168.737 27.4425 168.572 26.2274 168.153C25.1678 167.785 24.1976 167.243 23.3735 166.474C22.5917 165.743 22.003 164.88 21.6027 163.885C21.2024 162.847 21.0234 161.744 21.0234 160.631ZM53.2225 147.988C54.0279 147.988 54.8426 148.031 55.6432 148.13C56.3732 148.219 57.1032 148.347 57.819 148.521C58.5113 148.686 59.1942 148.88 59.8677 149.101L60.4234 149.28L59.7311 152.827L59.0058 152.563C58.3983 152.341 57.7767 152.157 57.155 151.992C56.5145 151.822 55.8599 151.69 55.2005 151.591C54.5459 151.497 53.8866 151.44 53.2225 151.44C52.6338 151.44 51.9933 151.483 51.4235 151.643C51.0703 151.742 50.6841 151.893 50.3968 152.129C50.1896 152.294 50.0153 152.496 49.907 152.742C49.8081 152.973 49.7563 153.213 49.7563 153.463C49.761 153.765 49.8175 154.048 49.9635 154.312C50.1189 154.586 50.345 154.812 50.5946 154.996C50.929 155.241 51.301 155.43 51.6825 155.581C52.3984 155.863 53.1236 156.123 53.8583 156.349C54.5459 156.561 55.2335 156.774 55.9164 156.991C56.5522 157.193 57.1785 157.434 57.7814 157.721C58.3606 158 58.8928 158.363 59.3544 158.811C59.8442 159.282 60.1927 159.853 60.4281 160.49C60.706 161.23 60.7955 162.046 60.8002 162.833C60.8002 163.772 60.6212 164.691 60.1644 165.517C59.7452 166.276 59.166 166.903 58.4407 167.379C57.6966 167.87 56.863 168.2 55.9965 168.407C55.0498 168.634 54.075 168.728 53.1095 168.728C52.5349 168.728 51.9557 168.704 51.3811 168.662C50.7406 168.615 50.1001 168.539 49.4643 168.445C48.8238 168.351 48.1833 168.223 47.5522 168.058C46.9683 167.907 46.3984 167.705 45.8521 167.45L45.3859 167.233L46.0358 163.772L46.7846 164.078C47.2555 164.272 47.7406 164.432 48.2304 164.564C48.772 164.715 49.3183 164.842 49.8693 164.941C50.4251 165.045 50.9855 165.13 51.5506 165.186C52.064 165.238 52.5867 165.271 53.1048 165.267C53.6746 165.267 54.3057 165.219 54.852 165.05C55.1817 164.946 55.5679 164.795 55.8363 164.569C56.0247 164.408 56.2084 164.215 56.3214 163.993C56.4109 163.819 56.4957 163.621 56.5286 163.427C56.5522 163.291 56.571 163.14 56.5663 162.998C56.5616 162.664 56.5333 162.225 56.3921 161.914C56.2696 161.65 56.0624 161.456 55.8222 161.31C55.3983 161.051 54.885 160.857 54.414 160.707C53.6275 160.457 52.8411 160.226 52.0499 160.004C51.2539 159.782 50.4722 159.528 49.6998 159.235C48.9604 158.952 48.2493 158.584 47.6088 158.118C46.9541 157.641 46.4408 157.038 46.0687 156.316C45.6449 155.5 45.4942 154.567 45.4942 153.657C45.4942 152.742 45.6825 151.846 46.1394 151.049C46.5632 150.308 47.1566 149.709 47.8819 149.257C48.6354 148.785 49.469 148.474 50.3309 148.276C51.2822 148.078 52.2524 147.988 53.2225 147.988ZM78.4374 165.083V160.589L74.8017 160.428V157H82.6195V167.459L82.1862 167.62C81.1501 168.002 80.081 168.285 78.9931 168.464C77.9052 168.648 76.8079 168.737 75.7059 168.737C73.45 168.737 71.0481 168.28 69.3574 166.667C67.6902 165.073 67.1769 162.814 67.1769 160.574V156.203C67.1769 153.958 67.6949 151.7 69.3527 150.087C71.0387 148.455 73.4359 147.993 75.7012 147.984C76.7184 147.979 77.7357 148.045 78.7435 148.182C79.7608 148.318 80.7639 148.54 81.7435 148.847L82.3463 149.035L81.4374 152.454L80.7733 152.237C79.9821 151.978 79.1674 151.789 78.3432 151.69C77.5567 151.591 76.7608 151.539 75.9696 151.544C75.0701 151.549 74.0528 151.662 73.2569 152.105C72.6117 152.463 72.1549 152.977 71.8676 153.657C71.505 154.505 71.4061 155.496 71.4061 156.415V160.707C71.4061 161.584 71.5144 162.503 71.8629 163.314C72.1455 163.975 72.5787 164.484 73.1957 164.847C73.9351 165.281 74.8582 165.408 75.7059 165.413C76.045 165.413 76.3888 165.403 76.7279 165.375C77.0669 165.347 77.406 165.295 77.7404 165.229C77.9712 165.191 78.2066 165.139 78.4374 165.083ZM94.0778 159.485V164.96H102.889V168.469H89.9004V148.257H102.889V151.766H94.0778V156.024H101.651V159.48H94.0778V159.485ZM109.257 160.631V156.179C109.257 155.057 109.44 153.954 109.855 152.911C110.255 151.912 110.844 151.03 111.63 150.294C112.45 149.521 113.425 148.969 114.484 148.592C115.695 148.158 116.99 147.993 118.271 147.993C119.552 147.993 120.847 148.163 122.057 148.592C123.117 148.969 124.096 149.521 124.911 150.294C125.693 151.035 126.286 151.912 126.682 152.911C127.096 153.954 127.28 155.057 127.28 156.179V160.631C127.28 161.749 127.101 162.847 126.687 163.885C126.291 164.88 125.698 165.743 124.916 166.474C124.092 167.243 123.122 167.785 122.062 168.153C120.847 168.572 119.547 168.737 118.266 168.737C116.985 168.737 115.685 168.572 114.47 168.153C113.41 167.785 112.44 167.243 111.616 166.474C110.834 165.743 110.246 164.88 109.845 163.885C109.436 162.847 109.257 161.744 109.257 160.631ZM6.82413 160.914H4.17736V168.469H0V148.257H7.23386C8.60433 148.257 10.1067 148.384 11.3971 148.88C12.4991 149.304 13.3939 150.007 13.9732 151.044C14.5902 152.148 14.7738 153.468 14.7691 154.718C14.7644 155.548 14.6702 156.387 14.43 157.184C14.2228 157.872 13.912 158.533 13.4693 159.103C13.0596 159.627 12.5651 160.056 11.9764 160.362C11.7362 160.49 11.4866 160.589 11.2323 160.664L16.6953 168.459H11.8351L6.82413 160.914Z" fill="url(#paint4_linear)"/>
<defs>
<linearGradient id="paint0_linear" x1="-15.5552" y1="-5.03888" x2="194.262" y2="108.463" gradientUnits="userSpaceOnUse">
<stop stop-color="#FFF27E"/>
<stop offset="1" stop-color="#E1B11D"/>
</linearGradient>
<linearGradient id="paint1_linear" x1="-6.74434" y1="-21.3271" x2="203.073" y2="92.1756" gradientUnits="userSpaceOnUse">
<stop stop-color="#FFF27E"/>
<stop offset="1" stop-color="#E1B11D"/>
</linearGradient>
<linearGradient id="paint2_linear" x1="-26.2203" y1="14.6754" x2="183.597" y2="128.178" gradientUnits="userSpaceOnUse">
<stop stop-color="#FFF381"/>
<stop offset="1" stop-color="#DFAE1B"/>
</linearGradient>
<linearGradient id="paint3_linear" x1="-26.966" y1="16.0542" x2="182.851" y2="129.557" gradientUnits="userSpaceOnUse">
<stop stop-color="#FFF381"/>
<stop offset="1" stop-color="#DFAE1B"/>
</linearGradient>
<linearGradient id="paint4_linear" x1="-66.5681" y1="89.2611" x2="143.249" y2="202.764" gradientUnits="userSpaceOnUse">
<stop stop-color="#FFF381"/>
<stop offset="1" stop-color="#DFAE1B"/>
</linearGradient>
</defs>
</svg>
