<svg viewBox="0 0 17 25" fill="none" xmlns="http://www.w3.org/2000/svg">
<path d="M16.5 12.9118C16.5 12.4118 16.1176 12.0294 15.6176 12.0294C15.1176 12.0294 14.7353 12.4118 14.7353 12.9118C14.7353 16.353 11.9412 19.1471 8.5 19.1471C5.05882 19.1471 2.26471 16.353 2.26471 12.9118C2.26471 12.4118 1.88235 12.0294 1.38235 12.0294C0.882353 12.0294 0.5 12.4118 0.5 12.9118C0.5 17 3.55882 20.4412 7.61765 20.8824V23.2353H4.41176C3.91176 23.2353 3.52941 23.6177 3.52941 24.1177C3.52941 24.6177 3.91176 25 4.41176 25H12.5882C13.0882 25 13.4706 24.6177 13.4706 24.1177C13.4706 23.6177 13.0882 23.2353 12.5882 23.2353H9.38235V20.8824C13.4412 20.4412 16.5 17 16.5 12.9118Z" fill="currentColor"/>
<path d="M8.4999 0C5.79402 0 3.58813 2.20588 3.58813 4.91176V12.8824C3.58813 15.6176 5.79402 17.7941 8.4999 17.8235C11.2058 17.8235 13.4117 15.6176 13.4117 12.9118V4.91176C13.4117 2.20588 11.2058 0 8.4999 0Z" fill="currentColor"/>
</svg>
