<svg viewBox="0 0 15 15" fill="none" xmlns="http://www.w3.org/2000/svg">
<g clip-path="url(#clip-rss)">
<path d="M11.6176 0.172852H2.83705C1.38224 0.172852 0.202881 1.35221 0.202881 2.80702V11.5876C0.202881 13.0424 1.38224 14.2218 2.83705 14.2218H11.6176C13.0724 14.2218 14.2518 13.0424 14.2518 11.5876V2.80702C14.2518 1.35221 13.0724 0.172852 11.6176 0.172852Z" fill="currentColor"/>
<path d="M3.71468 12.4665C4.685 12.4665 5.4716 11.6799 5.4716 10.7096C5.4716 9.73924 4.685 8.95264 3.71468 8.95264C2.74436 8.95264 1.95776 9.73924 1.95776 10.7096C1.95776 11.6799 2.74436 12.4665 3.71468 12.4665Z" fill="white"/>
<path d="M1.95776 7.19654C3.35502 7.19654 4.69504 7.7516 5.68305 8.73961C6.67105 9.72761 7.22611 11.0676 7.22611 12.4649H8.98222C8.98222 10.6019 8.24215 8.81519 6.92481 7.49785C5.60747 6.1805 3.82077 5.44043 1.95776 5.44043V7.19654Z" fill="white"/>
<path d="M1.95581 3.68483C3.10889 3.68483 4.25068 3.91194 5.31599 4.35321C6.3813 4.79447 7.34926 5.44125 8.16462 6.2566C8.97997 7.07195 9.62674 8.03991 10.068 9.10522C10.5093 10.1705 10.7364 11.3123 10.7364 12.4654H12.4925C12.4925 9.6709 11.3824 6.99085 9.40638 5.01484C7.43036 3.03882 4.75032 1.92871 1.95581 1.92871V3.68483Z" fill="white"/>
</g>
<defs>
<clipPath id="clip-rss">
<rect width="14.0489" height="14.0489" fill="white" transform="translate(0.202881 0.172852)"/>
</clipPath>
</defs>
</svg>
