<svg viewBox="0 0 15 10" fill="none" xmlns="http://www.w3.org/2000/svg">
<path d="M12.8975 6.27826C13.3635 6.76066 13.8553 7.21451 14.2733 7.74556C14.458 7.98155 14.6327 8.22506 14.7665 8.49893C14.956 8.88825 14.7843 9.31666 14.4551 9.33991L12.4084 9.33892C11.8805 9.38535 11.4594 9.16006 11.1053 8.77738C10.822 8.47135 10.5596 8.14566 10.2871 7.82931C10.1754 7.70003 10.0585 7.57836 9.91879 7.48218C9.63941 7.28991 9.39687 7.34877 9.2372 7.65773C9.0746 7.97198 9.03769 8.31993 9.02172 8.67014C8.9998 9.18112 8.85412 9.31547 8.37001 9.33886C7.33542 9.39058 6.35353 9.22464 5.44137 8.67128C4.63718 8.18345 4.0136 7.49475 3.47079 6.71511C2.41403 5.19698 1.60471 3.52877 0.877349 1.81383C0.713619 1.42746 0.833364 1.22006 1.23546 1.2127C1.90314 1.19894 2.57073 1.19993 3.23921 1.21171C3.51058 1.21593 3.69023 1.38094 3.79502 1.65275C4.15625 2.5945 4.59827 3.49048 5.15309 4.32098C5.30085 4.54208 5.45152 4.76321 5.66604 4.91883C5.90339 5.09114 6.08411 5.03403 6.19576 4.7537C6.2666 4.57595 6.29764 4.38449 6.31361 4.19414C6.36651 3.53918 6.37348 2.88533 6.28071 2.23267C6.22375 1.82535 6.00736 1.56166 5.62401 1.48459C5.42839 1.44529 5.4575 1.36811 5.55222 1.24973C5.71672 1.04556 5.87145 0.918457 6.1799 0.918457H8.49297C8.85712 0.99465 8.93798 1.1681 8.98783 1.55657L8.98981 4.28069C8.98583 4.43107 9.06066 4.87737 9.31615 4.9769C9.52062 5.04777 9.65541 4.87432 9.77811 4.73686C10.3319 4.11367 10.7272 3.37717 11.0803 2.61454C11.237 2.27919 11.3718 1.93096 11.5023 1.58298C11.5991 1.32479 11.7509 1.19774 12.0252 1.20336L14.2514 1.20545C14.3174 1.20545 14.3842 1.20647 14.4482 1.21808C14.8233 1.28586 14.9261 1.45696 14.8102 1.84534C14.6277 2.45468 14.2725 2.96249 13.9252 3.47262C13.5539 4.01726 13.1568 4.54328 12.7887 5.09114C12.4504 5.59153 12.4773 5.8437 12.8975 6.27826Z" fill="currentColor"/>
</svg>
