<svg width="42" height="40" viewBox="0 0 42 40" fill="none" xmlns="http://www.w3.org/2000/svg">
<path d="M10.858 29.7939C5.27005 24.2972 5.2698 15.4304 10.8575 9.93219C16.4451 4.43401 25.4578 4.43281 31.0457 9.92948C36.6337 15.4262 36.634 24.293 31.0463 29.7912C28.1263 32.6644 24.2329 34.0127 20.4115 33.8713" stroke="#333333" stroke-width="1.5" stroke-miterlimit="10" stroke-linecap="round"/>
<path d="M21.2406 34.9002C21.8379 34.3125 21.8379 33.3598 21.2405 32.7722C20.6432 32.1847 19.6748 32.1848 19.0775 32.7725C18.4802 33.3602 18.4803 34.313 19.0776 34.9005C19.6749 35.4881 20.6433 35.4879 21.2406 34.9002Z" fill="#333333"/>
<g clip-path="url(#clip0)">
<path d="M15 19.9148L19.4518 24.375L28 15.8353L26.7728 14.625L19.4518 21.9375L16.2102 18.696L15 19.9148Z" fill="#333333"/>
</g>
<defs>
<clipPath id="clip0">
<rect width="13" height="13" fill="white" transform="translate(15 13)"/>
</clipPath>
</defs>
</svg>
