<svg viewBox="0 0 18 13" fill="none" xmlns="http://www.w3.org/2000/svg">
<path d="M8.69721 0.119629C8.69721 0.119629 3.38671 0.119634 2.05384 0.465972C1.34018 0.665376 0.752536 1.25303 0.553131 1.97718C0.206795 3.31005 0.206787 6.0703 0.206787 6.0703C0.206787 6.0703 0.206795 8.84104 0.553131 10.1529C0.752536 10.8771 1.32969 11.4542 2.05384 11.6536C3.3972 12.0105 8.69721 12.0105 8.69721 12.0105C8.69721 12.0105 14.0182 12.0105 15.3511 11.6641C16.0752 11.4647 16.6524 10.8981 16.8413 10.1634C17.1981 8.84104 17.1981 6.0808 17.1981 6.0808C17.1981 6.0808 17.2086 3.31005 16.8413 1.97718C16.6524 1.25303 16.0752 0.675885 15.3511 0.486973C14.0182 0.119646 8.69721 0.119629 8.69721 0.119629ZM7.00749 3.52006L11.426 6.0703L7.00749 8.61005V3.52006Z" fill="currentColor"/>
</svg>
