<svg width="128" height="128" viewBox="0 0 128 128" fill="none" xmlns="http://www.w3.org/2000/svg">
<path d="M81.6209 45.5299L83.0384 33.8397L73.0165 32.8352C68.971 32.4344 64.9208 32.1043 60.8612 31.9675C57.4892 31.8496 53.6791 32.076 50.1187 32.972C45.9037 34.0424 42.0325 36.0655 39.5882 39.6164C36.9509 43.4644 36.5176 48.496 36.5176 54.8009V73.5128C36.5176 80.011 38.2083 84.8446 41.764 88.1315C46.483 92.4982 53.7168 93.7714 59.9193 93.4272L84.6538 92.0549V67.6135C93.0179 66.3874 101.801 63.8126 101.801 62.0867C101.801 59.7524 85.6758 55.8525 76.3132 55.8525V55.8572H59.1563C58.5535 55.8572 58.0637 56.3477 58.0637 56.9513V62.0914V67.2315C58.0637 67.8304 58.5535 68.3255 59.1563 68.3255H72.1782V80.742L56.6273 81.2135C52.6054 81.2135 49.8974 78.6482 49.8974 75.0501C49.8974 72.9375 49.9256 55.9987 49.8974 52.3582C49.8597 47.336 51.9555 44.7707 56.9523 44.2095C61.6383 43.686 67.464 44.3085 72.2442 44.7235L81.6209 45.5299Z" fill="url(#paint0_linear)"/>
<path d="M127.285 63.7232C127.285 28.53 98.792 0 63.64 0C28.4927 0 0 28.53 0 63.7232C0 98.9164 28.4927 127.446 63.64 127.446C98.7873 127.451 127.285 98.9212 127.285 63.7232ZM113.66 63.7232C113.66 91.3808 91.2662 113.809 63.64 113.809C36.0186 113.809 13.6247 91.3855 13.6247 63.7232C13.6247 36.0609 36.0186 13.6378 63.64 13.6378C91.2662 13.6378 113.66 36.0656 113.66 63.7232Z" fill="url(#paint1_linear)"/>
<defs>
<linearGradient id="paint0_linear" x1="-26.2203" y1="13.2036" x2="183.597" y2="126.706" gradientUnits="userSpaceOnUse">
<stop stop-color="#FFF381"/>
<stop offset="1" stop-color="#DFAE1B"/>
</linearGradient>
<linearGradient id="paint1_linear" x1="-26.966" y1="14.5826" x2="182.851" y2="128.085" gradientUnits="userSpaceOnUse">
<stop stop-color="#FFF381"/>
<stop offset="1" stop-color="#DFAE1B"/>
</linearGradient>
</defs>
</svg>
