<?xml version="1.0" standalone="no"?>
<!DOCTYPE svg PUBLIC "-//W3C//DTD SVG 20010904//EN"
 "http://www.w3.org/TR/2001/REC-SVG-20010904/DTD/svg10.dtd">
<svg version="1.0" xmlns="http://www.w3.org/2000/svg"
 width="700.000000pt" height="700.000000pt" viewBox="0 0 700.000000 700.000000"
 preserveAspectRatio="xMidYMid meet">
<metadata>
Created by potrace 1.14, written by Peter Selinger 2001-2017
</metadata>
<g transform="translate(0.000000,700.000000) scale(0.100000,-0.100000)"
fill="#000000" stroke="none">
<path d="M3268 6995 c-1 -1 -41 -6 -88 -9 -149 -12 -174 -15 -345 -47 -1310
-243 -2378 -1239 -2720 -2534 -14 -55 -28 -109 -30 -120 -14 -63 -26 -125 -31
-151 -2 -16 -6 -40 -9 -54 -3 -14 -7 -47 -11 -75 -3 -27 -8 -58 -9 -67 -26
-136 -26 -680 0 -839 2 -13 6 -46 10 -74 9 -78 54 -300 81 -405 169 -645 547
-1260 1048 -1705 93 -82 106 -94 171 -143 33 -25 62 -49 65 -52 10 -13 278
-187 350 -229 62 -36 310 -159 385 -192 153 -66 457 -161 625 -194 37 -8 249
-43 290 -49 195 -27 666 -28 850 -1 14 2 43 6 65 10 22 3 54 7 70 9 17 3 77
14 135 26 434 88 841 255 1210 496 86 56 297 210 326 238 6 6 40 36 75 66 380
330 721 808 914 1279 43 106 121 324 130 365 2 11 13 55 24 96 25 91 68 309
77 382 3 29 8 64 10 78 26 147 25 673 -1 842 -2 13 -6 44 -9 69 -9 59 -14 93
-27 155 -5 28 -12 64 -15 80 -3 16 -14 65 -25 109 -154 617 -477 1186 -925
1630 -91 90 -147 142 -218 200 -27 22 -54 45 -60 50 -29 28 -210 158 -286 207
-168 108 -362 212 -510 273 -36 15 -78 33 -95 40 -96 44 -454 151 -565 170
-19 3 -53 10 -75 15 -22 5 -58 11 -80 14 -23 4 -52 8 -65 11 -13 3 -54 7 -90
11 -36 3 -78 8 -95 11 -34 5 -521 13 -527 8z m427 -749 c44 -4 94 -9 110 -11
17 -2 48 -6 70 -9 22 -3 49 -7 60 -9 11 -3 36 -7 55 -11 120 -22 329 -77 395
-105 11 -5 58 -23 105 -41 240 -91 518 -256 742 -441 91 -75 355 -343 363
-370 4 -10 10 -19 14 -19 4 0 39 -44 78 -97 223 -310 368 -624 453 -980 24
-101 35 -162 55 -293 24 -161 24 -506 -1 -695 -25 -202 -111 -528 -177 -676
-8 -19 -30 -68 -48 -109 -306 -685 -918 -1234 -1639 -1468 -142 -46 -338 -92
-457 -107 -26 -4 -59 -8 -73 -10 -132 -22 -491 -22 -640 0 -14 2 -45 6 -70 9
-25 3 -56 8 -70 11 -14 3 -41 8 -60 11 -265 46 -656 195 -867 330 -29 19 -56
34 -59 34 -10 0 -164 110 -264 189 -119 93 -322 296 -422 421 -122 154 -223
314 -313 495 -147 297 -222 541 -269 875 -30 217 -24 581 14 785 5 28 12 66
15 85 3 19 11 53 17 75 5 22 12 50 14 61 9 50 57 206 91 294 183 484 482 893
883 1206 65 51 256 184 264 184 2 0 37 19 78 43 261 153 621 277 938 322 32 5
136 16 225 24 82 7 276 6 390 -3z"/>
<path d="M3217 5254 c-1 -1 -58 -4 -127 -7 -69 -3 -132 -8 -140 -11 -8 -2 -35
-7 -60 -10 -244 -27 -518 -156 -657 -310 -79 -87 -159 -231 -177 -316 -10 -47
-15 -72 -20 -88 -3 -9 -8 -39 -12 -67 -3 -27 -8 -53 -10 -56 -16 -27 -25
-1421 -10 -1569 43 -421 224 -678 580 -825 186 -77 330 -100 616 -100 174 0
248 3 530 20 148 9 237 14 360 20 69 3 148 7 175 10 28 2 111 7 185 11 74 4
144 7 155 8 20 1 20 9 23 668 l2 668 23 4 c20 5 203 38 267 50 64 11 290 70
373 97 166 55 277 117 277 155 0 16 -52 60 -99 84 -72 36 -343 123 -451 143
-14 3 -46 10 -73 16 -26 6 -64 14 -85 17 -20 3 -45 7 -54 10 -24 7 -44 11
-133 23 -44 7 -96 14 -115 17 -150 23 -325 29 -813 29 -533 0 -539 0 -556 -21
-15 -18 -16 -54 -16 -322 1 -274 2 -304 18 -319 16 -17 49 -18 385 -19 l367
-1 2 -336 c0 -185 -2 -338 -5 -338 -34 -7 -520 -22 -752 -23 -201 -1 -206 -1
-261 25 -76 36 -133 90 -166 157 l-28 57 0 735 0 735 24 65 c50 136 155 214
317 236 27 3 58 8 69 10 25 6 363 5 430 -1 28 -2 86 -7 130 -10 106 -8 157
-12 235 -20 36 -3 91 -8 122 -10 32 -3 84 -7 115 -10 32 -3 83 -7 113 -10 30
-3 80 -7 112 -10 31 -4 58 -2 61 2 3 4 8 40 11 78 4 39 11 99 16 135 5 36 11
90 15 120 3 30 13 108 21 174 8 65 14 120 12 121 -2 2 -28 6 -58 10 -30 3 -66
8 -80 10 -14 2 -65 6 -114 10 -50 3 -92 8 -95 9 -3 2 -48 7 -98 10 -51 4 -103
9 -115 11 -22 3 -65 8 -213 20 -119 10 -175 14 -325 20 -80 4 -162 8 -183 9
-20 1 -38 2 -40 0z"/>
</g>
</svg>
